<?xml version="1.0" encoding="utf-8"?>
<!-- Generator: Adobe Illustrator 16.0.3, SVG Export Plug-In . SVG Version: 6.00 Build 0)  -->
<!DOCTYPE svg PUBLIC "-//W3C//DTD SVG 1.1//EN" "http://www.w3.org/Graphics/SVG/1.1/DTD/svg11.dtd">
<svg version="1.1" id="Capa_1" xmlns="http://www.w3.org/2000/svg" xmlns:xlink="http://www.w3.org/1999/xlink" x="0px" y="0px"
	 width="860.367px" height="608.84px" viewBox="0 0 860.367 608.84" enable-background="new 0 0 860.367 608.84"
	 xml:space="preserve">
<path fill="#5D7244" d="M50.852,513.602L24.475,491.28c3.017-17.896,10.356-34.784,21.38-49.199
	c0.887,32.249,33.942,53.848,45.317,84.037c7.041,19.128,5,40.42-5.547,57.862l-2.654,24.362
	c-29.153-15.191-50.191-42.388-57.573-74.422c-1.958-8.9-2.788-18.012-2.47-27.119C36.435,510.912,50.852,513.602,50.852,513.602z"
	/>
<path fill="#5D7244" d="M790.244,556.297l18.42-29.234c18.143,0.486,35.889,5.396,51.703,14.301
	c-31.812,5.381-48.58,41.129-76.885,56.607c-17.959,9.644-39.326,10.596-58.07,2.587l-24.496,0.775
	c10.973-30.989,34.963-55.619,65.652-67.402c8.541-3.182,17.446-5.275,26.51-6.231C790.894,541.645,790.244,556.297,790.244,556.297
	z"/>
<polygon fill="#444343" points="207.198,460.992 105.065,455 119.065,356 209.065,453 "/>
<polygon fill="#444343" points="194.198,561.992 90.198,554.992 104.065,465 194.667,555.008 "/>
<path d="M775.179,144.373L775.179,144.373V52.927C775.179,23.696,751.484,0,722.253,0l0,0H528.511
	c-29.229,0-52.928,23.696-52.928,52.927l0,0V554.61c0,29.229,23.697,52.927,52.928,52.927l0,0h193.742
	c29.23,0,52.926-23.696,52.926-52.927V209.466l0,0c1.845,0,3.338-1.495,3.338-3.338l0,0v-58.417
	C778.517,145.868,777.023,144.373,775.179,144.373z"/>
<path fill="#FFFFFF" d="M763.916,53.29v500.958c0.002,21.656-17.434,39.277-39.088,39.503c-0.146,0.015-0.289,0.021-0.435,0.018
	H529.71c-21.826-0.002-39.52-17.693-39.521-39.521V53.29c0.002-21.826,17.694-39.519,39.521-39.521h23.625
	c-3.914,9.612,0.705,20.577,10.316,24.491c2.248,0.915,4.647,1.386,7.073,1.388H681.72c10.386-0.029,18.781-8.471,18.754-18.857
	c-0.008-2.407-0.477-4.791-1.381-7.021h25.302C746.22,13.771,763.914,31.464,763.916,53.29z"/>
<path fill="#444343" d="M721.052,581.54c0,5.19-0.164,10.337-0.489,15.44c-0.144,0.017-0.285,0.022-0.431,0.02h-194.68
	c-18.123-0.001-33.924-12.324-38.34-29.9c-0.377-1.489-0.66-3.004-0.851-4.528c-0.223-1.688-0.332-3.39-0.33-5.091V334.23
	c14.979,0.74,29.861,2.842,44.459,6.278c1.431,0.33,2.851,0.681,4.261,1.04c0.09,0.021,0.182,0.051,0.271,0.07
	c1.43,0.359,2.851,0.738,4.26,1.13c30.097,8.267,58.349,22.176,83.25,40.99c1.431,1.069,2.851,2.17,4.261,3.278l0.27,0.211
	c2.359,1.859,4.685,3.767,6.972,5.721c0.51,0.43,1.02,0.869,1.52,1.318c1.23,1.062,2.459,2.142,3.66,3.23
	c26.555,23.903,47.635,53.259,61.799,86.06c0.471,1.07,0.92,2.15,1.371,3.23c0.18,0.438,0.359,0.88,0.539,1.32
	c0.17,0.398,0.33,0.8,0.49,1.198C715.07,518.636,721.091,549.945,721.052,581.54z"/>
<path fill="#EB6028" d="M476.654,195.532c-2.486-0.003-4.502-2.019-4.504-4.506V160.39c0-2.488,2.016-4.505,4.504-4.505
	c2.487,0,4.506,2.017,4.506,4.505l0,0v30.636C481.158,193.514,479.142,195.529,476.654,195.532z"/>
<path fill="#444343" d="M475.753,136.062c-2.486-0.003-4.502-2.019-4.506-4.505V100.92c0-2.488,2.018-4.505,4.506-4.505
	s4.506,2.017,4.506,4.505l0,0v30.636C480.255,134.043,478.24,136.059,475.753,136.062z"/>
<path fill="#FFFFFF" d="M595.595,18.922c0.004-2.487,2.021-4.502,4.506-4.505h30.638c2.487-0.002,4.506,2.013,4.51,4.501
	c0.002,2.488-2.014,4.507-4.502,4.509c-0.002,0-0.006,0-0.008,0h-30.638C597.615,23.425,595.599,21.409,595.595,18.922z"/>
<path fill="#444343" d="M476.654,247.794c-2.486-0.003-4.502-2.019-4.504-4.505v-30.636c0-2.488,2.016-4.505,4.504-4.505
	c2.487,0,4.506,2.017,4.506,4.505l0,0v30.636C481.158,245.775,479.142,247.791,476.654,247.794z"/>
<circle fill="#FFFFFF" cx="647.857" cy="18.922" r="4.505"/>
<path opacity="0.2" fill="#EB6028" enable-background="new    " d="M631.222,559.34c-0.006-39.334,31.877-71.225,71.211-71.229
	c0.007,0,0.015,0,0.021,0h0.369c-0.181-0.44-0.359-0.88-0.539-1.32c-0.451-1.08-0.9-2.16-1.371-3.23h-69.689v-89.289h4.23
	c-0.5-0.449-1.01-0.891-1.521-1.319c-2.291-1.95-4.612-3.856-6.971-5.72l-0.27-0.211v2.701h-87.511V342.75
	c-1.41-0.391-2.83-0.77-4.26-1.13c-0.092-0.021-0.182-0.05-0.271-0.07v48.17h-44.459v4.55h44.459v89.29h-44.459v4.552h44.459v71.229
	h-44.13c0.189,1.526,0.474,3.039,0.851,4.53h43.279v29.898h4.53V563.87h87.511v29.898h4.528V563.87h76.351v-4.53H631.222
	L631.222,559.34z M626.693,559.34h-87.511V488.11h87.511V559.34z M626.693,483.56h-87.511v-1.778
	c0-48.331,39.181-87.51,87.511-87.512V483.56z"/>
<polygon points="238.653,232.79 190.083,606.41 189.773,608.79 187.753,608.79 188.063,606.41 236.673,232.53 "/>
<polygon points="137.533,233.26 83.973,606.45 83.633,608.83 81.613,608.83 81.953,606.45 135.553,232.98 "/>
<polygon points="314.173,608.74 312.093,608.75 311.453,606.37 207.843,221.52 209.773,221 313.523,606.37 "/>
<rect x="362.445" y="213.69" transform="matrix(0.9621 -0.2725 0.2725 0.9621 -99.0266 114.7133)" width="2" height="400.308"/>
<rect x="298.257" y="546.224" transform="matrix(0.9793 -0.2026 0.2026 0.9793 -103.6303 82.014)" width="101.106" height="2"/>
<rect x="281.093" y="486.146" transform="matrix(0.9793 -0.2026 0.2026 0.9793 -91.814 77.2901)" width="101.107" height="2"/>
<rect x="264.77" y="425.343" transform="matrix(0.9818 -0.19 0.19 0.9818 -75.2713 67.5873)" width="100.142" height="1.999"/>
<rect x="249.73" y="365.293" transform="matrix(0.981 -0.1939 0.1939 0.981 -65.358 64.8829)" width="98.033" height="2.001"/>
<path d="M135.842,233.191c-3.132-20.459,10.915-39.583,31.374-42.715c20.459-3.132,39.584,10.915,42.716,31.374l-1.977,0.303
	c-2.953-19.37-21.048-32.678-40.417-29.726c-19.37,2.953-32.679,21.048-29.726,40.418c0.002,0.015,0.004,0.029,0.007,0.044
	L135.842,233.191z"/>
<path d="M236.003,233.638c-3.409-20.415,10.378-39.728,30.793-43.136c20.415-3.409,39.729,10.378,43.137,30.793
	c0.001,0.011,0.003,0.021,0.006,0.032l-1.974,0.328c-3.227-19.326-21.509-32.376-40.835-29.149
	c-19.313,3.225-32.362,21.488-29.154,40.805L236.003,233.638z"/>
<polygon fill="#FFB6B6" points="339.339,315.25 320.12,362.005 382.739,361.551 376.371,315.146 "/>
<polygon fill="#FFB6B6" points="354.63,529.884 363.918,531.239 373.563,496.059 359.854,494.06 "/>
<path fill="#2F2E41" d="M352.995,524.967l14.81,1.267l-0.917,6.29L379.44,544.2c1.605,1.494,1.696,4.006,0.203,5.611
	c-0.889,0.955-2.189,1.413-3.48,1.226l-17.479-2.55l-2.104-6.662l-2.084,6.051l-6.591-0.961L352.995,524.967z"/>
<polygon fill="#FFB6B6" points="247.292,503.901 254.702,509.663 280.452,483.824 269.516,475.321 "/>
<path fill="#2F2E41" d="M248.297,498.817l12.257,8.408l-3.902,5.02l5.155,16.351c0.66,2.092-0.501,4.321-2.592,4.981
	c-1.245,0.392-2.603,0.147-3.632-0.653l-13.945-10.844l1.457-6.833l-4.798,4.234l-5.258-4.09L248.297,498.817z"/>
<path fill="#2F2E41" d="M323.656,350.911l-6.168,8.169l-16.415,71.419l-37.313,50.393l12.542,12.043l47.59-46.169l23.354-49.328
	L359.065,443l-3,61l20-1c5.42-70.79,13.898-143.629,3.911-164.084l0,0c-13.305,11.605-30.801,17.223-48.374,15.531L323.656,350.911z
	"/>
<path fill="#EB6028" d="M356.667,239.641l15.778,17.253c3.463,3.787,5.657,8.56,6.278,13.653l0,0
	c0.282,2.313,0.235,4.654-0.14,6.954l-3.401,24.92l6,38c0,0-8.552,5.216-25,16c-6.714,4.401-38.039,4.33-38,3
	c0.178-6.162,5.689-22.769,7-43c1.617-24.971-0.504-54.774,5-69C336.901,230.054,356.667,239.641,356.667,239.641z"/>
<path fill="#FFB6B6" d="M302.521,350.201c2.601-3.783,1.642-8.958-2.141-11.559c-0.403-0.277-0.831-0.521-1.276-0.722l0.617-18.985
	l-11.446-3.189l-0.495,26.824c-1.624,4.32,0.562,9.141,4.883,10.764C296.278,354.693,300.354,353.398,302.521,350.201
	L302.521,350.201z"/>
<path fill="#EB6028" d="M287.253,273.559c0.683-1.789,2.084-3.209,3.864-3.917c6.091-2.56,32.43-24.082,33.399-23.678l8.362-4.127
	c0.309,0.003,8.545,0.199,12.585,4.78c1.7,1.958,2.46,4.561,2.078,7.125c-1.183,10.912-38.521,35.422-42.478,35.257l-4.192,30.981
	l1.631,11.836l-15.27,0.435l-4.706-17.429C281.854,313.553,281.001,289.48,287.253,273.559z"/>
<ellipse transform="matrix(-0.1443 0.9895 -0.9895 -0.1443 636.5227 -40.1132)" fill="#EB6028" cx="335.605" cy="255.156" rx="15.499" ry="13"/>
<polygon points="233.692,312.393 233.305,310.432 326.183,289.42 326.183,291.42 "/>
<path fill="#EB6028" d="M609.242,171.07h35.621c7.684,0,13.912,6.229,13.912,13.913l0,0c0,7.684-6.229,13.913-13.912,13.913h-35.621
	c-7.685,0-13.914-6.229-13.914-13.913l0,0C595.328,177.299,601.558,171.07,609.242,171.07z"/>
<path fill="#444343" d="M543.154,226.722h167.795c7.686,0,13.914,6.229,13.914,13.913l0,0c0,7.684-6.229,13.913-13.914,13.913
	H543.154c-7.685,0-13.912-6.229-13.912-13.913l0,0C529.242,232.951,535.47,226.722,543.154,226.722z"/>
<path fill="#EB6028" d="M471.154,268.374h167.795c7.686,0,13.914,6.229,13.914,13.913l0,0c0,7.684-6.229,13.913-13.914,13.913
	H471.154c-7.685,0-13.912-6.229-13.912-13.913l0,0C457.242,274.603,463.47,268.374,471.154,268.374z"/>
<path fill="#CACACA" d="M860.13,607.34c0.002,0.655-0.526,1.188-1.184,1.19c-0.002,0-0.004,0-0.006,0l-592.691,0.21l-2.08,0.01
	l-122.32,0.04h-2.02l-104.12,0.04h-2.02l-32.5,0.01c-0.657,0-1.19-0.532-1.19-1.188c0-0.657,0.533-1.19,1.19-1.19l0,0l32.84-0.01
	h2.02l104.09-0.04h2.02l121.37-0.04h2.07l103.42-0.04h1.358l488.562-0.18c0.653-0.002,1.188,0.526,1.188,1.183
	C860.13,607.335,860.13,607.338,860.13,607.34z"/>
<path fill="#FFB6B6" d="M373.363,222.411c-7.256,9.639-20.952,11.57-30.59,4.314c-9.64-7.256-11.57-20.952-4.314-30.59
	c7.256-9.638,20.951-11.57,30.59-4.314c4.049,3.048,6.912,7.409,8.101,12.335c0.063,0.262,0.114,0.521,0.167,0.792
	C378.558,211.067,377.118,217.424,373.363,222.411z"/>
<path fill="#2F2E41" d="M379.047,205.201c-0.551-2.738-0.343-1.323-0.904-4.053c0.116,1.321-0.173,2.646-0.826,3.8l-25.738-3.754
	l2.183-14.962c7.978-1.888,15.721-3.356,19.365,2.825c8.263,1.206,13.984,8.881,12.779,17.144L379.047,205.201z"/>
<path fill="#2F2E41" d="M363.856,245.46c0.021-0.28,0.032-0.571,0.032-0.854c-0.049-2.083-0.318-4.155-0.806-6.181
	c-0.438-2.196-0.884-4.403-1.331-6.601c0.415,3.931-0.464,7.891-2.504,11.277c-3.852-4.018-1.305-9.834-6.984-10.663
	c-13.655-1.992-24.768-16.637-22.773-30.302c1.992-13.655,9.34-23.013,22.995-21.021c13.666,1.994,23.836,9.864,22.11,23.559
	C357.197,206.178,367.235,244.538,363.856,245.46z"/>
<circle fill="#2F2E41" cx="333.813" cy="184.459" r="9.121"/>
<path fill="#2F2E41" d="M344.631,176.928c-1.728-3.738-5.207-6.367-9.274-7.007c4.752,2.148,6.861,7.742,4.714,12.494
	c-0.504,1.114-1.221,2.121-2.107,2.962l1.844-1.585c1.032,0.879,2.517,0.985,3.662,0.261c1.108-0.747,1.814-1.961,1.916-3.294
	C345.471,179.438,345.212,178.117,344.631,176.928z"/>
<path fill="#FFB6B6" d="M460.736,273.397c-4.097-2.074-9.099-0.436-11.172,3.66c-0.224,0.437-0.404,0.892-0.546,1.361l-18.898,1.915
	l-1.638,11.769l26.651-3.079c4.498,1.035,8.982-1.773,10.019-6.271C466.017,278.987,464.193,275.12,460.736,273.397L460.736,273.397
	z"/>
<path fill="#EB6028" d="M386.806,298.726c-1.863-0.438-3.458-1.639-4.396-3.308c-3.348-5.697-28.185-28.938-27.912-29.954
	l-5.202-7.738c-0.038-0.306-0.939-8.496,3.063-13.11c1.715-1.945,4.192-3.044,6.785-3.007c10.973-0.279,38.559,34.447,38.922,38.391
	l32.938-0.948l11.514-3.192l2.461,15.076l-16.646,6.982C427.162,298.757,403.416,302.805,386.806,298.726z"/>
</svg>
