<?xml version="1.0" encoding="utf-8"?>
<!-- Generator: Adobe Illustrator 16.0.3, SVG Export Plug-In . SVG Version: 6.00 Build 0)  -->
<!DOCTYPE svg PUBLIC "-//W3C//DTD SVG 1.1//EN" "http://www.w3.org/Graphics/SVG/1.1/DTD/svg11.dtd">
<svg version="1.1" id="Capa_1" xmlns="http://www.w3.org/2000/svg" xmlns:xlink="http://www.w3.org/1999/xlink" x="0px" y="0px"
	 width="660.67px" height="513.668px" viewBox="0 0 660.67 513.668" enable-background="new 0 0 660.67 513.668"
	 xml:space="preserve">
<polygon fill="#2F2E41" points="476.607,95.103 428.219,95.103 428.219,17.887 476.607,33.33 "/>
<g>
	<polygon fill="#A0616A" points="485.198,487.151 475.212,487.387 469.646,442.524 484.382,442.176 	"/>
	<path fill="#2F2E41" d="M450.938,507.984L450.938,507.984c0,1.688,1.197,3.055,2.674,3.055h19.821c0,0,1.95-7.841,9.903-11.215
		l0.549,11.215h10.225l-1.238-18.033c0,0,2.735-9.647-2.945-14.579c-5.681-4.933-1.08-4.245-1.08-4.245l-2.234-11.162l-15.451,1.817
		l-0.113,17.521l-7.498,17.391l-10.998,5.433C451.571,505.664,450.938,506.767,450.938,507.984L450.938,507.984L450.938,507.984z"/>
</g>
<g>
	<polygon fill="#A0616A" points="434.02,487.151 424.034,487.387 418.468,442.524 433.204,442.176 	"/>
	<path fill="#2F2E41" d="M399.76,507.984L399.76,507.984c0,1.688,1.197,3.055,2.674,3.055h19.821c0,0,1.95-7.841,9.903-11.215
		l0.549,11.215h10.225l-1.239-18.033c0,0,2.735-9.647-2.944-14.579c-5.681-4.933-1.08-4.245-1.08-4.245l-2.234-11.162l-15.451,1.817
		l-0.113,17.521l-7.499,17.391l-10.998,5.433C400.394,505.664,399.76,506.767,399.76,507.984L399.76,507.984L399.76,507.984z"/>
</g>
<path d="M479.696,179.525l-63.832,38.093l-14.414,58.684l7.207,181.2h31.608l7-174.509l14.012,174.509h32.103l8.12-195.966
	c2.235-14.242,0.471-28.825-5.098-42.122L479.696,179.525L479.696,179.525L479.696,179.525z"/>
<path fill="#9E9D99" d="M465.282,63.187l-26.768-2.059l-7.207,14.414l-20.591,5.148l-5.148,63.832
	c10.184,26.458,16.576,51.741,10.296,73.098l78.245-4.118l-13.063-35.325c0,0-0.32-13.064,6.887-30.566
	c7.207-17.502-4.118-62.802-4.118-62.802l-16.473-4.118L465.282,63.187L465.282,63.187z"/>
<g>
	<path fill="#9E9D99" d="M285.045,88.017c2.606,0.081,5.015-0.434,6.909-1.355l24.782,2.337l0.768-11.824l-25.221-1.099
		c-1.833-1.037-4.206-1.7-6.813-1.781c-5.954-0.185-10.876,2.738-10.994,6.527C274.359,84.611,279.091,87.833,285.045,88.017
		L285.045,88.017L285.045,88.017z"/>
	<path fill="#9E9D99" d="M431.638,124.115c0,0-0.875-37.669-9.138-43.324c-3.407-2.332-55.798-2.861-57.707-3.059
		c-11.771-1.22-20.146-5.893-30.057-6.405c-24.151-1.248-36.361,4.613-36.361,4.613l-0.426,12.094L431.638,124.115L431.638,124.115
		L431.638,124.115z"/>
</g>
<circle id="b" fill="#A0616A" cx="449.618" cy="38.777" r="21.374"/>
<path fill="#2F2E41" d="M443.136,6.95c-4.598,2.898-7.965,0.823-11.249,2.285c-6.416,2.856-17.247,22.913-16.271,31.31
	c1.383,11.893,5.754,12.382,5.624,20.915c-0.21,13.701-1.298,13.644,1.508,18.428c3.12,5.321,20.797,3.876,24.078-3.339
	c0.647-1.424-6.544-0.864-14.489-19.54c-3.987-9.371-1.369-17.911,0-21.62c0.32-0.869,0.468-7.035,1.151-6.35
	c6,6,9.363,1.614,12.986,1.11c7.436-1.033,13.035,4.966,15.291,2.813c1.679-1.603-0.463-5.84,0.352-6.151
	c0.867-0.333,3.742,4.315,5.624,9.315c1.213,3.224,1.82,4.835,1.757,6.678c-0.193,5.691-1.645,21.826-4.216,26.561
	c-5.552,10.224,1.439,14.081,5.798,13.336c3.521-0.603,19.089,1.769,19.941,0.048c0.759-1.533-0.976-17.299-2.797-31.956
	c-2.19-17.617-10.967-33.806-24.729-45.021c-0.807-0.658-1.409-1.109-1.73-1.281c-0.763-0.409-8.622-4.489-14.412-1.23
	C445.222,4.459,445.568,5.416,443.136,6.95L443.136,6.95z"/>
<g>
	<polygon fill="#FFB6B6" points="176.137,503.837 164.277,503.836 158.636,458.093 176.139,458.095 	"/>
	<path fill="#2F2E41" d="M135.506,503.568L135.506,503.568c-0.369,0.622-0.564,2.629-0.564,3.352l0,0
		c0,2.224,1.802,4.025,4.025,4.025h36.726c1.517,0,2.746-1.229,2.746-2.746v-1.528c0,0,1.817-4.596-1.924-10.26
		c0,0-4.649,4.435-11.596-2.512l-2.048-3.711l-14.829,10.845l-8.219,1.012C138.025,502.266,136.431,502.011,135.506,503.568
		L135.506,503.568z"/>
</g>
<g>
	<polygon fill="#FFB6B6" points="226.137,503.837 214.277,503.836 208.636,458.093 226.139,458.095 	"/>
	<path fill="#2F2E41" d="M185.506,503.568L185.506,503.568c-0.369,0.622-0.564,2.629-0.564,3.352l0,0
		c0,2.224,1.802,4.025,4.025,4.025h36.726c1.517,0,2.746-1.229,2.746-2.746v-1.528c0,0,1.817-4.596-1.924-10.26
		c0,0-4.649,4.435-11.596-2.512l-2.048-3.711l-14.829,10.845l-8.219,1.012C188.025,502.266,186.431,502.011,185.506,503.568
		L185.506,503.568z"/>
</g>
<polygon fill="#2F2E41" points="228.488,215.039 141.488,214.039 132.488,271.039 154.488,468.039 183.331,468.039 189.988,284.539 
	201.988,471.539 231.52,471.539 244.988,258.539 "/>
<g>
	<path fill="#47604D" d="M597.32,495.98c2.066,0.13,3.208-2.438,1.646-3.934l-0.156-0.618c0.021-0.049,0.041-0.099,0.063-0.147
		c2.089-4.982,9.17-4.948,11.241,0.041c1.838,4.429,4.18,8.864,4.756,13.546c0.258,2.067,0.142,4.173-0.316,6.201
		c4.308-9.411,6.575-19.687,6.575-30.021c0-2.597-0.143-5.192-0.433-7.782c-0.239-2.119-0.569-4.225-0.995-6.311
		c-2.306-11.277-7.299-22.019-14.5-30.99c-3.462-1.892-6.35-4.851-8.093-8.396c-0.627-1.278-1.118-2.654-1.351-4.056
		c0.395,0.052,1.485-5.949,1.188-6.317c0.549-0.833,1.532-1.247,2.132-2.06c2.982-4.044,7.091-3.338,9.236,2.157
		c4.582,2.313,4.626,6.147,1.814,9.837c-1.788,2.347-2.034,5.522-3.604,8.034c0.161,0.207,0.329,0.407,0.49,0.614
		c2.962,3.798,5.522,7.88,7.682,12.168c-0.61-4.766,0.29-10.508,1.826-14.209c1.748-4.218,5.024-7.77,7.91-11.415
		c3.466-4.38,10.573-2.469,11.185,3.083c0.006,0.054,0.012,0.107,0.018,0.161c-0.429,0.242-0.849,0.499-1.259,0.77
		c-2.34,1.548-1.531,5.174,1.241,5.603l0.063,0.01c-0.155,1.543-0.42,3.074-0.808,4.579c3.702,14.315-4.29,19.529-15.701,19.764
		c-0.252,0.13-0.498,0.259-0.749,0.382c1.155,3.255,2.079,6.594,2.764,9.979c0.614,2.99,1.04,6.013,1.279,9.049
		c0.297,3.83,0.271,7.68-0.052,11.503l0.02-0.136c0.82-4.211,3.106-8.145,6.427-10.87c4.945-4.063,11.933-5.559,17.268-8.824
		c2.568-1.571,5.859,0.46,5.411,3.438l-0.021,0.143c-0.794,0.322-1.569,0.697-2.318,1.117c-0.429,0.242-0.849,0.499-1.259,0.77
		c-2.34,1.548-1.531,5.174,1.241,5.603l0.063,0.01c0.045,0.006,0.084,0.013,0.129,0.019c-1.362,3.236-3.262,6.239-5.639,8.83
		c-2.314,12.497-12.256,13.683-22.89,10.043h-0.007c-1.162,5.063-2.861,10.012-5.044,14.727h-18.021
		c-0.064-0.2-0.123-0.407-0.181-0.607c1.666,0.104,3.346,0.007,4.986-0.297c-1.338-1.641-2.674-3.294-4.012-4.935
		c-0.032-0.032-0.058-0.064-0.084-0.097c-0.678-0.84-1.362-1.673-2.041-2.513v-0.001C596.398,501.043,596.708,498.475,597.32,495.98
		L597.32,495.98L597.32,495.98z"/>
	<path fill="#47604D" d="M0,512.478c0,0.66,0.53,1.19,1.19,1.19H659.48c0.659,0,1.189-0.53,1.189-1.19
		c0-0.659-0.53-1.189-1.189-1.189H1.19C0.53,511.288,0,511.818,0,512.478z"/>
</g>
<polygon fill="#353433" points="198.988,65.539 168.024,65.539 161.988,77.539 132.488,91.086 142.988,168.539 134.988,219.539 
	234.921,219.539 225.988,160.539 237.988,89.539 204.988,76.539 "/>
<path fill="#FFB6B6" d="M302.636,253.221c-1.35-2.755-1.966-5.587-1.897-8.065l-14.523-25.435l12.305-6.557l13.407,26.507
	c2.001,1.463,3.862,3.685,5.213,6.44c3.085,6.294,2.339,12.988-1.667,14.952C311.47,263.027,305.722,259.516,302.636,253.221
	L302.636,253.221L302.636,253.221z"/>
<path fill="#9E9D99" d="M206.908,86.126c0,0,9.797-10.081,20.788-3.065c10.99,7.015,51.083,78.798,51.083,78.798l30.927,61.712
	l-21.83,10.17l-26.337-59.095l-55.31-59.521L206.908,86.126L206.908,86.126L206.908,86.126z"/>
<circle fill="#FFB6B6" cx="182.195" cy="31.729" r="27.96"/>
<path fill="#2F2E41" d="M173.42,54.232c0.129,2.74,0.194,4.109-0.227,4.275c-1.267,0.498-17.58-9.136-19.5-15.549
	c-0.896-2.991-0.139-3.051-0.793-11.561c-0.625-8.139-1.327-8.204-0.498-10.217c0.921-2.238,3.735-4.996,9.363-10.51
	c2.128-2.085,3.192-3.128,3.863-3.667c2.036-1.634,9.619-7.72,16.572-6.934c2.915,0.33,2.417,1.493,13.305,7.398
	c0.938,0.508,2.196,1.18,3.933,1.951c4.224,1.875,6.845,2.361,8.224,2.883c8.361,3.169,5.907,20.818,5.189,20.919
	c-0.262,0.037-0.333-2.251-1.705-2.441c-1.235-0.17-2.021,1.568-3.144,1.631c-3.065,0.173,0.339-2.762-7.164-6.021
	c-2.917-1.267,5.199,4.445-2.526,4.353c-12.081-0.145-4.354,0.624-8.942,3.034c-3.346,1.757-16.806-7.915-16.259-4.824
	c0.386,2.18,1.968,2.808,1.739,5.25c-0.221,2.366-1.999,4.916-3.568,5.01c-1.445,0.086-2.238-1.942-2.72-1.748
	c-0.524,0.211,0.051,2.757,1.183,5.372c1.436,3.32,2.293,3.347,3.05,5.9C173.23,50.206,173.293,51.548,173.42,54.232L173.42,54.232z
	"/>
<path fill="#FFFFFF" d="M393.795,245.011l-180.158-45.837c-11.517-2.93-18.502-14.683-15.572-26.2l22.413-88.091
	c2.93-11.517,14.683-18.502,26.2-15.572l180.158,45.837c11.517,2.93,18.502,14.684,15.572,26.2l-22.413,88.091
	C417.064,240.956,405.311,247.941,393.795,245.011L393.795,245.011z"/>
<path d="M393.795,245.011l-180.158-45.837c-5.758-1.465-10.384-5.136-13.688-10.003c-4.808-7.082-6.062-15.998-3.952-24.293
	l18.795-73.87c2.11-8.295,7.474-15.528,15.081-19.451c5.229-2.697,11.046-3.71,16.804-2.246l180.158,45.837
	c11.535,2.935,18.507,14.665,15.572,26.2l-22.413,88.091C417.064,240.956,405.311,247.941,393.795,245.011L393.795,245.011z
	 M246.184,71.25c-10.464-2.663-7.729,6.815-10.392,17.279l0,0c-12.989,51.055,13.877,103.837,62.808,123.358
	c26.414,10.538,48.383,19.15,48.383,19.15c36.59,9.31,73.799-12.806,83.108-49.395l10.377-40.787
	c2.662-10.465-3.662-21.106-14.127-23.769L246.184,71.25L246.184,71.25z"/>
<path fill="#EB6028" d="M330.479,140.668L330.479,140.668c-1.255-10.321-10.64-17.669-20.96-16.414l0,0
	c-10.222,1.243-17.523,10.463-16.441,20.667l-0.299,0.036l4.546,37.374l34.391-4.183c1.086,0.059,2.192,0.029,3.311-0.106l0,0
	c10.32-1.256,17.669-10.64,16.413-20.96l0,0C350.184,146.762,340.799,139.413,330.479,140.668L330.479,140.668L330.479,140.668
	L330.479,140.668z"/>
<path fill="#EB6028" d="M264.56,493.723L264.56,493.723c-1.457-3.754-5.68-5.615-9.433-4.158l0,0
	c-3.717,1.442-5.577,5.6-4.197,9.325l-0.109,0.042l5.274,13.592l12.507-4.854c0.414-0.082,0.826-0.198,1.232-0.356h0
	c3.753-1.456,5.615-5.68,4.158-9.433l0,0C272.536,494.128,268.313,492.266,264.56,493.723L264.56,493.723z"/>
<path fill="#EB6028" d="M544.56,493.723L544.56,493.723c-1.456-3.754-5.68-5.615-9.433-4.158l0,0
	c-3.718,1.442-5.578,5.6-4.197,9.325l-0.109,0.042l5.275,13.592l12.507-4.854c0.413-0.082,0.825-0.198,1.231-0.356l0,0
	c3.754-1.456,5.615-5.68,4.159-9.433l0,0C552.536,494.128,548.313,492.266,544.56,493.723L544.56,493.723L544.56,493.723z"/>
<circle fill="#EB6028" cx="315.712" cy="224.386" r="24"/>
<path fill="#FFB6B6" d="M206.611,127.053c-2.575,1.668-5.314,2.617-7.783,2.842L175.3,147.338l-7.973-11.438l24.726-16.462
	c1.215-2.161,3.2-4.273,5.775-5.941c5.883-3.812,12.618-3.866,15.043-0.123C215.297,117.117,212.494,123.242,206.611,127.053
	L206.611,127.053L206.611,127.053z"/>
<path fill="#353433" d="M151.504,86.349c0,0-18-2-21,5s-9,77-9,77l10,17l65.579-49.632l-13.28-13.28l-28.105,13.28L151.504,86.349
	L151.504,86.349z"/>
<g>
	<path fill="#A0616A" d="M412.218,108.968c2.139,2.2,4.598,3.734,6.954,4.503l19.053,22.245l10.32-9.376l-20.438-21.556
		c-0.703-2.377-2.168-4.878-4.307-7.078c-4.887-5.026-11.44-6.579-14.639-3.469C405.963,97.347,407.331,103.941,412.218,108.968
		L412.218,108.968z"/>
	<path fill="#9E9D99" d="M475.006,81.558c0,0,17.994,2.059,19.359,9.551c1.366,7.493-8.374,77.071-8.374,77.071l-13.535,14.346
		l-52.878-62.99l15.904-9.989l24.441,19.206L475.006,81.558L475.006,81.558z"/>
</g>
<circle fill="#D9C0C3" cx="232.392" cy="147.338" r="15.004"/>
</svg>
