<?xml version="1.0" encoding="utf-8"?>
<!-- Generator: Adobe Illustrator 16.0.3, SVG Export Plug-In . SVG Version: 6.00 Build 0)  -->
<!DOCTYPE svg PUBLIC "-//W3C//DTD SVG 1.1//EN" "http://www.w3.org/Graphics/SVG/1.1/DTD/svg11.dtd">
<svg version="1.1" id="Capa_1" xmlns="http://www.w3.org/2000/svg" xmlns:xlink="http://www.w3.org/1999/xlink" x="0px" y="0px"
	 width="962.676px" height="543.621px" viewBox="0 0 962.676 543.621" enable-background="new 0 0 962.676 543.621"
	 xml:space="preserve">
<path fill="#FFB6B6" d="M821.38,345.137c3.285-0.809,5.292-4.128,4.483-7.413c-0.086-0.351-0.203-0.692-0.35-1.021l15.899-14.87
	l-11-2.644l-13.411,14.526c-3.011,1.583-4.168,5.307-2.585,8.318C815.741,344.552,818.62,345.835,821.38,345.137L821.38,345.137z"/>
<path fill="#3F3D56" d="M829.593,333.158l-7.415-10.454l27.852-28.807l6.467-45.407c1.203-8.444,9.024-14.315,17.469-13.112
	c0.937,0.133,1.858,0.353,2.755,0.655l0,0c8.076,2.732,12.417,11.486,9.702,19.568l-16.5,48.953L829.593,333.158z"/>
<polygon fill="#FFB6B6" points="881.887,526.632 873.656,526.632 869.74,494.882 881.889,494.883 "/>
<path fill="#2F2E41" d="M886.315,542.262h-5.841l-1.042-5.515l-2.671,5.515h-15.491c-1.923,0-3.482-1.56-3.482-3.482
	c0-1.145,0.563-2.216,1.504-2.866l12.371-8.543v-5.575l13.012,0.776L886.315,542.262z"/>
<polygon fill="#FFB6B6" points="932.67,518.256 925.44,522.19 906.825,496.174 917.496,490.367 "/>
<path fill="#2F2E41" d="M944.03,529.867l-5.131,2.792l-3.551-4.346l0.29,6.12l-13.607,7.404c-1.688,0.92-3.804,0.296-4.723-1.394
	c-0.547-1.005-0.565-2.215-0.049-3.236l6.782-13.417l-2.665-4.897l11.801-5.537L944.03,529.867z"/>
<path fill="#100F16" d="M885.355,515.326h-17.011v-60.575l-10.531-39.491c-7.559-28.242-9.567-57.683-5.915-86.689l0.015-0.119
	l0.092-0.076c0.271-0.228,27.224-22.514,44.273-5.465c11.491,11.492,0.693,52.814,0.089,55.082v71.236L885.355,515.326z"/>
<path fill="#3F3D56" d="M885.313,229.706l-0.09-0.09l-21.689,0.33l-11.58,27.18c-10.721,16.65-0.471,26.12,0.25,27.62l-2.05,20.43
	l-1.32,13.181l-2.12,21.22l49.71-16.24l-5.53-22.15l6.391-31.949C900.166,254.887,895.672,240.047,885.313,229.706z"/>
<polygon fill="#100F16" points="875.207,455.064 910.153,504.218 923.558,494.688 894.373,434.711 "/>
<circle fill="#FFB6B6" cx="872.353" cy="204.4" r="20.024"/>
<polygon opacity="0.1" fill="#3F3D56" enable-background="new    " points="891.664,281.866 869.824,307.066 848.834,318.355 
	850.154,305.176 862.514,298.236 "/>
<path fill="#2F2E41" d="M858.327,241.926l-1.879-8.233c-1.247-5.566-0.194-11.4,2.92-16.179c2.885-4.543,3.058-10.299,0.452-15.007
	c-1.924-3.808-5.791-6.244-10.057-6.334h-0.5v-0.5c0-7.18,5.596-12.248,10.799-12.539c0.188-1.494,1.247-2.833,3.091-3.897
	c4.405-2.54,12.922-3.09,19.356,0.294c0.243-2.23,1.689-4.146,3.767-4.992c1.057-0.368,2.196-0.433,3.288-0.189
	c0.094-1.8,0.838-3.505,2.093-4.799c1.776-1.722,4.626-2.376,7.82-1.799c4.386,0.796,8.708,3.59,12.172,7.868
	c3.071,3.793,5.203,8.263,7.265,12.586c2.027,4.251,4.124,8.647,7.163,12.37c3.329,4.078,7.454,6.72,11.615,7.439
	c4.853,0.84,9.833-1.158,12.112-4.857l0.453-0.734l0.412,0.758c2.561,4.705,1.513,11.17-2.491,15.373
	c-3.591,3.769-9.227,5.689-15.069,5.131c-4.947-0.47-9.938-2.573-14.831-6.248c-4.861-3.65-7.868-7.686-8.936-11.994
	c-0.299-1.333-0.514-2.684-0.643-4.043c-0.331-2.849-0.643-5.54-2.396-7.52c-1.575-1.781-4.013-2.552-6.174-3.135l-0.424-0.114
	c-0.156,1.624-1.021,3.096-2.362,4.025c-0.398,0.239-0.835,0.408-1.291,0.497c2.506,10.085,1.477,17.807-3.064,22.955
	c-7.665,8.691-22.393,6.903-23.016,6.824l-0.415-0.054l-0.021-0.417c-0.056-1.121-0.193-2.235-0.41-3.336
	c-2.109,5.083-9.205,18.522-10.154,19.878L858.327,241.926z"/>
<path fill="#A0616A" d="M151.182,274.258c-2.212,2.91-6.363,3.476-9.273,1.264c-0.31-0.236-0.599-0.498-0.863-0.785l-21.565,9.379
	l2.101-12.039l20.157-7.061c2.862-2.305,7.05-1.854,9.355,1.008C153.022,268.418,153.059,271.823,151.182,274.258L151.182,274.258z"
	/>
<path fill="#3F3D56" d="M136.791,278.018l-50.089,22.311l-0.107-0.037l-57.089-20.344c-8.828-4.614-12.526-15.312-8.433-24.393l0,0
	c4.275-9.453,15.403-13.65,24.855-9.375c0.67,0.303,1.322,0.645,1.952,1.024l42.485,25.593l41.197-5.34L136.791,278.018z"/>
<path fill="#4F5953" d="M157.776,131.114C138.84,89.23,139.539,36.14,168.926,0.796c9.832,49.01,36.682,92.963,75.801,124.082
	c15.13,11.947,33.202,23.659,37.335,42.489c2.572,11.716-1.074,24.108-7.375,34.314c-6.303,10.206-15.088,18.602-23.773,26.875
	l-0.974,2.832C212.147,205.222,176.712,172.999,157.776,131.114z"/>
<path fill="#FFFFFF" d="M169.744,1.307c-6.763,37.034-1.739,76.468,14.7,110.398c3.554,7.335,7.798,14.468,13.479,20.367
	c5.582,5.708,12.591,9.818,20.299,11.901c7.147,2.087,14.7,3.394,21.216,7.182c6.868,3.993,11.13,10.692,12.791,18.375
	c2.032,9.4,0.564,18.969-1.196,28.277c-1.954,10.335-4.147,21.039-1.316,31.429c0.343,1.259-1.63,1.717-1.973,0.46
	c-4.927-18.076,4.652-35.903,3.313-54.077c-0.625-8.48-3.809-16.823-11.08-21.736c-6.358-4.296-14.146-5.651-21.401-7.701
	c-7.618-2.153-14.459-5.442-20.281-10.897c-5.955-5.581-10.487-12.562-14.213-19.774c-8.327-16.418-14.021-34.044-16.873-52.231
	c-3.37-20.738-3.167-41.901,0.599-62.571C168.042-0.57,169.976,0.036,169.744,1.307L169.744,1.307z"/>
<path fill="#FFFFFF" d="M178.519,100.958c-12.67,4.061-26.417-1.656-32.471-13.503c-0.589-1.163,1.189-2.133,1.78-0.969
	c5.62,11.047,18.451,16.352,30.231,12.499C179.297,98.582,179.751,100.557,178.519,100.958L178.519,100.958z"/>
<path fill="#FFFFFF" d="M214.458,143.393c6.13-11.655,7.642-25.192,4.234-37.912c-0.338-1.26,1.635-1.719,1.973-0.461
	c3.521,13.244,1.919,27.328-4.487,39.442C215.568,145.616,213.851,144.541,214.458,143.393L214.458,143.393z"/>
<path fill="#FFFFFF" d="M166.444,43.2c5.144-0.541,9.671-3.631,12.047-8.225c0.596-1.161,2.313-0.084,1.721,1.069
	c-2.648,5.061-7.632,8.48-13.307,9.129c-0.542,0.108-1.074-0.223-1.217-0.756C165.563,43.872,165.901,43.33,166.444,43.2z"/>
<path fill="#4F5953" d="M324.557,1.206c-0.352,0.736-0.703,1.472-1.047,2.222c-4.679,9.917-8.543,20.198-11.557,30.741
	c-0.246,0.811-0.483,1.637-0.705,2.454c-6.989,25.478-9.188,52.031-6.483,78.311c1.086,10.457,2.966,20.815,5.623,30.986
	c3.67,14.047,8.768,28.985,7.617,43.011c-0.104,1.465-0.298,2.922-0.581,4.362l-63.955,39.063c-0.19,0.016-0.372,0.047-0.563,0.063
	l-2.482,1.676c-0.174-0.515-0.343-1.053-0.517-1.568c-0.102-0.298-0.189-0.605-0.292-0.903c-0.063-0.202-0.126-0.404-0.195-0.583
	c-0.021-0.067-0.042-0.134-0.055-0.187c-0.069-0.179-0.114-0.352-0.173-0.515c-0.954-3.004-1.887-6.02-2.802-9.048
	c-0.009-0.015-0.009-0.015-0.004-0.038c-6.909-23.088-11.951-46.956-13.209-70.831c-0.038-0.718-0.085-1.451-0.094-2.187
	c-0.508-10.765-0.135-21.553,1.115-32.256c0.704-5.859,1.703-11.678,2.995-17.436c3.366-14.871,9.05-29.12,16.844-42.225
	C269.578,30.199,293.3,9.338,322.333,1.763C323.076,1.57,323.805,1.385,324.557,1.206z"/>
<path fill="#FFFFFF" d="M324.909,2.105c-27.697,25.498-47.428,60.009-54.73,96.997c-1.579,7.997-2.485,16.247-1.5,24.378
	c1.021,7.918,4.143,15.419,9.042,21.724c4.451,5.969,9.694,11.56,12.616,18.507c3.08,7.323,2.449,15.238-0.851,22.373
	c-4.038,8.729-10.971,15.485-17.98,21.858c-7.783,7.076-15.979,14.301-19.973,24.302c-0.484,1.211-2.336,0.39-1.853-0.82
	c6.949-17.399,25.331-25.866,35.203-41.183c4.607-7.147,7.087-15.726,4.24-24.026c-2.49-7.258-7.892-13.028-12.451-19.034
	c-4.786-6.306-8.269-13.05-9.633-20.911c-1.396-8.042-0.81-16.344,0.557-24.346c3.236-18.123,9.302-35.624,17.975-51.862
	c9.795-18.587,22.699-35.363,38.15-49.6C324.68-0.418,325.859,1.23,324.909,2.105z"/>
<path fill="#FFFFFF" d="M271.918,86.955c-12.561-4.386-20.095-17.227-17.797-30.332c0.229-1.283,2.234-0.987,2.004,0.298
	c-2.164,12.204,4.887,24.165,16.613,28.181C273.971,85.526,273.144,87.376,271.918,86.955L271.918,86.955z"/>
<path fill="#FFFFFF" d="M275.065,142.474c11.912-5.615,21.269-15.513,26.207-27.721c0.488-1.21,2.34-0.389,1.853,0.82
	c-5.162,12.694-14.921,22.975-27.329,28.792C274.613,144.917,273.889,143.025,275.065,142.474L275.065,142.474z"/>
<path fill="#FFFFFF" d="M297.051,33.568c4.433,2.665,9.908,2.923,14.571,0.686c1.176-0.568,1.898,1.325,0.73,1.89
	c-5.161,2.446-11.2,2.176-16.121-0.723c-0.498-0.24-0.724-0.824-0.516-1.336C295.944,33.575,296.54,33.344,297.051,33.568z"/>
<path fill="#4F5953" d="M569.776,153.114c-18.936-41.884-18.237-94.975,11.149-130.318c9.832,49.01,36.683,92.963,75.801,124.082
	c15.13,11.947,33.202,23.659,37.336,42.489c2.571,11.716-1.074,24.108-7.376,34.314c-6.303,10.206-15.088,18.602-23.773,26.875
	l-0.975,2.832C624.146,227.222,588.712,194.999,569.776,153.114z"/>
<path fill="#FFFFFF" d="M581.744,23.307c-6.764,37.034-1.739,76.468,14.7,110.398c3.554,7.335,7.798,14.468,13.479,20.367
	c5.582,5.708,12.591,9.818,20.299,11.901c7.146,2.087,14.7,3.394,21.216,7.182c6.867,3.993,11.13,10.692,12.79,18.375
	c2.031,9.4,0.564,18.969-1.195,28.277c-1.954,10.335-4.148,21.039-1.316,31.429c0.344,1.259-1.63,1.717-1.973,0.46
	c-4.927-18.076,4.652-35.903,3.313-54.077c-0.625-8.48-3.81-16.823-11.08-21.736c-6.358-4.296-14.146-5.651-21.4-7.701
	c-7.618-2.153-14.46-5.442-20.282-10.897c-5.955-5.581-10.486-12.562-14.212-19.774c-8.327-16.418-14.021-34.044-16.873-52.231
	c-3.37-20.738-3.168-41.901,0.598-62.571C580.042,21.43,581.977,22.036,581.744,23.307L581.744,23.307z"/>
<path fill="#FFFFFF" d="M590.519,122.958c-12.67,4.061-26.416-1.656-32.472-13.503c-0.589-1.163,1.19-2.133,1.78-0.969
	c5.62,11.047,18.451,16.352,30.231,12.499C591.298,120.582,591.751,122.557,590.519,122.958L590.519,122.958z"/>
<path fill="#FFFFFF" d="M626.459,165.393c6.13-11.655,7.642-25.192,4.234-37.912c-0.339-1.26,1.634-1.719,1.973-0.461
	c3.521,13.244,1.919,27.328-4.486,39.442C627.568,167.616,625.851,166.541,626.459,165.393L626.459,165.393z"/>
<path fill="#FFFFFF" d="M578.444,65.2c5.144-0.541,9.67-3.631,12.047-8.225c0.597-1.161,2.313-0.084,1.721,1.069
	c-2.648,5.061-7.633,8.48-13.308,9.129c-0.541,0.108-1.073-0.223-1.217-0.756C577.563,65.872,577.901,65.33,578.444,65.2z"/>
<path fill="#4F5953" d="M736.557,23.206c-0.352,0.736-0.703,1.472-1.047,2.222c-4.679,9.917-8.543,20.198-11.557,30.741
	c-0.246,0.811-0.483,1.637-0.705,2.454c-6.989,25.478-9.188,52.031-6.483,78.311c1.086,10.457,2.965,20.815,5.622,30.986
	c3.671,14.047,8.769,28.985,7.618,43.011c-0.104,1.465-0.298,2.922-0.581,4.362l-63.955,39.063
	c-0.189,0.016-0.372,0.047-0.563,0.063l-2.482,1.676c-0.174-0.515-0.343-1.053-0.516-1.568c-0.103-0.298-0.19-0.605-0.292-0.903
	c-0.063-0.202-0.127-0.404-0.195-0.583c-0.021-0.067-0.042-0.134-0.055-0.187c-0.068-0.179-0.113-0.352-0.174-0.515
	c-0.953-3.004-1.887-6.02-2.802-9.048c-0.009-0.015-0.009-0.015-0.004-0.038c-6.908-23.088-11.95-46.956-13.209-70.831
	c-0.038-0.718-0.085-1.451-0.094-2.187c-0.508-10.765-0.135-21.553,1.115-32.256c0.703-5.859,1.702-11.678,2.994-17.436
	c3.365-14.871,9.05-29.12,16.844-42.225c15.541-26.122,39.263-46.982,68.296-54.557C735.076,23.57,735.805,23.385,736.557,23.206z"
	/>
<path fill="#FFFFFF" d="M736.909,24.105c-27.697,25.498-47.428,60.009-54.73,96.997c-1.579,7.997-2.484,16.247-1.5,24.378
	c1.021,7.918,4.143,15.419,9.042,21.724c4.45,5.969,9.694,11.56,12.616,18.507c3.079,7.323,2.449,15.238-0.851,22.373
	c-4.037,8.729-10.971,15.485-17.98,21.858c-7.782,7.076-15.979,14.301-19.973,24.302c-0.483,1.211-2.335,0.39-1.853-0.82
	c6.949-17.399,25.331-25.866,35.204-41.183c4.606-7.147,7.087-15.726,4.24-24.026c-2.49-7.258-7.893-13.028-12.451-19.034
	c-4.786-6.306-8.269-13.05-9.633-20.911c-1.396-8.042-0.811-16.344,0.558-24.346c3.236-18.123,9.302-35.624,17.975-51.862
	c9.795-18.587,22.698-35.363,38.15-49.6C736.68,21.582,737.859,23.23,736.909,24.105z"/>
<path fill="#FFFFFF" d="M683.918,108.955c-12.562-4.386-20.096-17.227-17.797-30.332c0.229-1.283,2.234-0.987,2.004,0.298
	c-2.163,12.204,4.888,24.165,16.613,28.181C685.971,107.526,685.144,109.376,683.918,108.955z"/>
<path fill="#FFFFFF" d="M687.065,164.474c11.912-5.615,21.27-15.513,26.207-27.721c0.488-1.21,2.34-0.389,1.853,0.82
	c-5.162,12.694-14.921,22.975-27.329,28.792C686.612,166.917,685.889,165.025,687.065,164.474L687.065,164.474z"/>
<path fill="#FFFFFF" d="M709.052,55.568c4.432,2.665,9.907,2.923,14.57,0.686c1.176-0.568,1.898,1.325,0.73,1.89
	c-5.161,2.446-11.199,2.176-16.121-0.723c-0.497-0.24-0.724-0.824-0.517-1.336C707.943,55.575,708.54,55.344,709.052,55.568z"/>
<path d="M186.806,428.34h487.181V146.292c-0.005-4.4-3.57-7.966-7.971-7.971H194.777c-4.4,0.005-7.966,3.571-7.971,7.971V428.34z"/>
<rect x="201.858" y="149.345" fill="#FFFFFF" width="457.077" height="259.491"/>
<path fill="#141615" d="M186.382,420.708v34.805c0,6.068,4.919,10.987,10.987,10.987h0h179.814v68.688h-2.389
	c-0.788,0-1.428,0.64-1.428,1.428l0,0v4.777c0,0.788,0.64,1.427,1.428,1.428l0,0h111.627c0.788,0,1.427-0.64,1.427-1.428l0,0v-4.777
	c0-0.788-0.639-1.428-1.427-1.428l0,0h-2.39V466.5h179.815c6.067,0,10.987-4.919,10.987-10.987l0,0v-34.805H186.382z"/>
<path fill="#F26925" d="M343.986,277.673H232.6c-1.616-0.002-2.926-1.312-2.928-2.928v-45.196c0.002-1.616,1.312-2.926,2.928-2.928
	h111.386c1.616,0.002,2.926,1.312,2.928,2.928v45.196C346.912,276.361,345.603,277.671,343.986,277.673z"/>
<path fill="#F26925" d="M333.381,299.354h-90.175c-1.94-0.004-3.511-1.578-3.507-3.52c0.003-1.936,1.572-3.504,3.507-3.507h90.175
	C337.911,292.264,337.956,299.418,333.381,299.354z"/>
<path fill="#ABABAB" d="M333.381,315.456h-90.175c-1.94,0-3.513-1.573-3.513-3.513c0-1.941,1.573-3.514,3.513-3.514h90.175
	C337.911,308.366,337.956,315.52,333.381,315.456z"/>
<path fill="#F26925" d="M333.381,331.559h-90.175c-1.94-0.004-3.511-1.578-3.507-3.52c0.003-1.936,1.572-3.504,3.507-3.507h90.175
	C337.911,324.469,337.956,331.623,333.381,331.559z"/>
<path fill="#F26925" d="M486.089,277.673H374.703c-1.616-0.002-2.926-1.312-2.928-2.928v-45.196
	c0.002-1.616,1.312-2.926,2.928-2.928h111.386c1.616,0.002,2.927,1.312,2.928,2.928v45.196
	C489.016,276.361,487.705,277.671,486.089,277.673z"/>
<path fill="#ABABAB" d="M475.483,299.354h-90.175c-1.939-0.004-3.51-1.578-3.507-3.52c0.003-1.936,1.571-3.504,3.507-3.507h90.175
	C480.014,292.264,480.06,299.418,475.483,299.354z"/>
<path fill="#F26925" d="M475.483,315.456h-90.175c-1.939,0-3.513-1.573-3.513-3.513c0-1.941,1.573-3.514,3.513-3.514h90.175
	C480.014,308.366,480.06,315.52,475.483,315.456z"/>
<path fill="#ABABAB" d="M475.483,331.559h-90.175c-1.939-0.004-3.51-1.578-3.507-3.52c0.003-1.936,1.571-3.504,3.507-3.507h90.175
	C480.014,324.469,480.06,331.623,475.483,331.559z"/>
<path fill="#F26925" d="M628.192,277.673H516.806c-1.616-0.002-2.926-1.312-2.928-2.928v-45.196
	c0.002-1.616,1.312-2.926,2.928-2.928h111.387c1.616,0.002,2.926,1.312,2.928,2.928v45.196
	C631.118,276.361,629.809,277.671,628.192,277.673z"/>
<path fill="#F26925" d="M617.586,299.354h-90.174c-1.94-0.004-3.511-1.578-3.508-3.52c0.003-1.936,1.572-3.504,3.508-3.507h90.174
	C622.117,292.264,622.162,299.418,617.586,299.354z"/>
<path fill="#ABABAB" d="M617.586,315.456h-90.174c-1.94,0-3.514-1.573-3.514-3.513c0-1.941,1.573-3.514,3.514-3.514h90.174
	C622.117,308.366,622.162,315.52,617.586,315.456z"/>
<path fill="#F26925" d="M617.586,331.559h-90.174c-1.94-0.004-3.511-1.578-3.508-3.52c0.003-1.936,1.572-3.504,3.508-3.507h90.174
	C622.117,324.469,622.162,331.623,617.586,331.559z"/>
<path fill="#141615" d="M818.526,227.232l0.305,56.649l1.241-0.07l1.18,20.973l-2.305,0.127l0.064,12.6l1.845-0.036l0.374,20.991
	l-2.101,0.038l1,184.855c0.046,10.078-8.077,18.291-18.156,18.355l-204.198,1.106c-10.079,0.047-18.292-8.077-18.355-18.156
	l-1.604-296.126c-0.046-10.079,8.077-18.291,18.156-18.355l204.198-1.107C810.248,209.034,818.458,217.155,818.526,227.232z"/>
<path fill="#FFFFFF" d="M802.27,530.068l-204.918,1.111c-3.106,0.013-5.637-2.491-5.657-5.598l-1.617-298.095
	c-0.013-3.106,2.491-5.638,5.598-5.658l204.917-1.111c3.106-0.013,5.638,2.491,5.658,5.597l1.616,298.095
	C807.88,527.517,805.376,530.048,802.27,530.068z"/>
<circle fill="#FFFFFF" cx="697.324" cy="215.221" r="1.553"/>
<path fill="#F26925" d="M758.272,304.622H639.672c-1.721-0.002-3.115-1.396-3.117-3.117v-48.123
	c0.002-1.721,1.396-3.115,3.117-3.117h118.601c1.721,0.002,3.115,1.396,3.117,3.117v48.123
	C761.388,303.226,759.993,304.62,758.272,304.622z"/>
<path fill="#ABABAB" d="M746.979,327.707h-96.015c-2.065,0-3.74-1.675-3.74-3.741c0-2.065,1.675-3.741,3.74-3.741h96.015
	C751.804,320.158,751.852,327.775,746.979,327.707z"/>
<path fill="#F26925" d="M746.979,344.852h-96.015c-2.065,0-3.74-1.674-3.74-3.74s1.675-3.74,3.74-3.74h96.015
	C751.804,337.303,751.852,344.92,746.979,344.852z"/>
<path fill="#ABABAB" d="M746.979,361.998h-96.015c-2.065,0-3.74-1.676-3.74-3.741s1.675-3.741,3.74-3.741h96.015
	C751.804,354.449,751.852,362.065,746.979,361.998z"/>
<path fill="#F26925" d="M758.272,444.257H639.672c-1.721-0.002-3.115-1.396-3.117-3.117v-48.123
	c0.002-1.721,1.396-3.115,3.117-3.117h118.601c1.721,0.002,3.115,1.396,3.117,3.117v48.123
	C761.388,442.86,759.993,444.255,758.272,444.257z"/>
<path fill="#F26925" d="M746.979,467.342h-96.015c-2.065,0-3.74-1.675-3.74-3.741c0-2.065,1.675-3.74,3.74-3.74h96.015
	C751.804,459.793,751.852,467.409,746.979,467.342z"/>
<path fill="#ABABAB" d="M746.979,484.487h-96.015c-2.065,0-3.74-1.675-3.74-3.741s1.675-3.741,3.74-3.741h96.015
	C751.804,476.938,751.852,484.555,746.979,484.487z"/>
<path fill="#F26925" d="M746.979,501.632h-96.015c-2.065,0-3.74-1.675-3.74-3.74c0-2.066,1.675-3.741,3.74-3.741h96.015
	C751.804,494.083,751.852,501.7,746.979,501.632z"/>
<path fill="#141615" d="M231.318,528.274l-0.395-163.255l1.488-0.003l-0.072-30.026l-1.488,0.004l-0.122-50.125
	c-0.019-7.873-6.417-14.239-14.29-14.221c0,0,0,0,0,0l-106.086,0.256c-7.873,0.019-14.24,6.417-14.222,14.29l0,0l0.084,34.95
	l-2.371,0.059l0.524,20.993l1.897-0.048l0.011,4.633l-2.02,0.051l0.523,20.993l1.547-0.038l0.391,161.812
	c0.004,7.859,6.378,14.227,14.237,14.223c0.018,0,0.035,0,0.053-0.001l106.085-0.256
	C224.965,542.536,231.328,536.144,231.318,528.274z"/>
<path fill="#FFFFFF" d="M107.767,536.287c-2.71-0.974-4.521-3.539-4.531-6.42l-0.594-245.973c-0.009-3.772,3.042-6.838,6.814-6.848
	l22.572-0.055l-0.28,0.689c-1.633,4.031,0.311,8.621,4.341,10.254c0.945,0.383,1.956,0.578,2.975,0.576l50.093-0.121
	c2.529-0.221,4.802-1.631,6.121-3.801c1.3-2.131,1.502-4.757,0.544-7.063l-0.283-0.688l23.315-0.058
	c3.771-0.004,6.833,3.044,6.847,6.815l0.567,234.68c0.012,10.005-8.077,18.133-18.083,18.168l-98.104,0.237
	C109.294,536.686,108.51,536.552,107.767,536.287z"/>
<circle fill="#FFFFFF" cx="146.413" cy="281.27" r="1.553"/>
<path fill="#F26925" d="M206.445,358.418h-80.598c-1.169-0.002-2.117-0.949-2.119-2.119v-32.703
	c0.001-1.169,0.949-2.116,2.119-2.117h80.598c1.169,0.001,2.117,0.948,2.119,2.117v32.703
	C208.563,357.469,207.615,358.416,206.445,358.418z"/>
<path fill="#ABABAB" d="M198.771,374.105h-65.249c-1.404,0-2.542-1.138-2.542-2.542c0-1.403,1.138-2.542,2.542-2.542h65.249
	C202.049,368.976,202.082,374.152,198.771,374.105z"/>
<path fill="#F26925" d="M198.771,385.758h-65.249c-1.404,0.004-2.546-1.13-2.551-2.533c-0.005-1.404,1.129-2.547,2.533-2.552
	c0.006,0,0.012,0,0.018,0h65.249C202.049,380.627,202.082,385.804,198.771,385.758z"/>
<path fill="#ABABAB" d="M198.771,397.409h-65.249c-1.404,0-2.542-1.139-2.542-2.542c0-1.404,1.138-2.543,2.542-2.543h65.249
	C202.049,392.279,202.082,397.455,198.771,397.409z"/>
<path fill="#F26925" d="M206.445,456.418h-80.598c-1.169-0.001-2.117-0.949-2.119-2.118v-32.703c0.001-1.17,0.949-2.117,2.119-2.119
	h80.598c1.169,0.002,2.117,0.949,2.119,2.119V454.3C208.563,455.469,207.615,456.417,206.445,456.418z"/>
<path fill="#F26925" d="M198.771,472.105h-65.249c-1.404,0-2.542-1.138-2.542-2.542s1.138-2.542,2.542-2.542h65.249
	C202.049,466.976,202.082,472.152,198.771,472.105z"/>
<path fill="#ABABAB" d="M198.771,483.758h-65.249c-1.404,0.005-2.546-1.13-2.551-2.534c-0.005-1.403,1.129-2.546,2.533-2.551
	c0.006,0,0.012,0,0.018,0h65.249C202.049,478.627,202.082,483.804,198.771,483.758z"/>
<path fill="#F26925" d="M198.771,495.409h-65.249c-1.404,0-2.542-1.139-2.542-2.542c0-1.404,1.138-2.543,2.542-2.543h65.249
	C202.049,490.279,202.082,495.455,198.771,495.409z"/>
<polygon fill="#A0616A" points="26.276,533.887 35.034,533.886 39.2,500.107 26.274,500.107 "/>
<path fill="#2F2E41" d="M24.042,531.027h2.465l9.624-3.914l5.158,3.913h0c6.07,0.001,10.991,4.921,10.991,10.991v0.357
	l-28.238,0.001L24.042,531.027z"/>
<polygon fill="#A0616A" points="60.214,528.368 68.756,530.297 80.261,498.265 67.653,495.418 "/>
<path fill="#2F2E41" d="M58.665,525.087l2.404,0.543l10.25-1.698l4.169,4.954h0.001c5.921,1.337,9.637,7.221,8.3,13.142
	l-0.079,0.349l-27.545-6.22L58.665,525.087z"/>
<path fill="#B2B1BB" d="M15.184,327.377c-4.106,12.383-3.672,25.825,0.987,40.252l1.992,81.229c0,0-2.967,53.268,6.607,72.013
	h13.886l6.875-76.877l0.863-51.601l29.771,43.533l-18.961,83.688l17.09,1.527l30.77-90.819l-37.964-88.112L15.184,327.377z"/>
<path fill="#3F3D56" d="M69.577,344.812l-50.494-8.077c-5.069-1.623-7.862-7.049-6.239-12.117c0.151-0.472,0.338-0.93,0.559-1.373
	l2.29-4.58l-0.89-48.12c-0.218-12.74,6.38-24.627,17.307-31.181l4.924-2.944l2.488-6.319l22.946,0.56l0.067,8.288l8.217,13.104
	l0,0.055l-0.516,71.321l-2.265,7.36l3.424,8.561L69.577,344.812z"/>
<circle fill="#A0616A" cx="53.098" cy="201.393" r="20.849"/>
<path fill="#2F2E41" d="M31.388,205.938c-0.622-2.62-0.336-6.306,0.015-8.944c0.91-7.034,4.761-13.352,10.596-17.384
	c1.106-0.84,2.421-1.363,3.802-1.511c1.417-0.119,2.749,0.687,3.3,1.997c0.703-1.754,2.1-3.14,3.86-3.828
	c1.749-0.67,3.63-0.924,5.495-0.74c7.361,0.607,13.795,5.206,16.752,11.975c0.557,1.323,2.112-3.563,2.817-2.313
	c0.648,1.299,1.78,2.293,3.152,2.769c1.382,0.386,1.944,6.082,2.488,4.753c1.382,3.212-0.103,6.937-3.315,8.318
	c-0.864,0.372-1.799,0.546-2.738,0.511c-1.396-0.18-2.779-0.445-4.143-0.793c-5.182-0.653-10.036,2.665-11.31,7.731
	c-0.38-1.423-0.988-2.776-1.8-4.005c-0.836-1.241-2.22-2.001-3.716-2.042c-1.424,0.164-2.718,0.907-3.576,2.056
	c-0.918,1.078-1.607,2.335-2.532,3.407c-2.713,3.145-6.383,10.48-10.249,9.945C37.235,217.416,32.237,209.515,31.388,205.938z"/>
<path fill="#A0616A" d="M130.82,329.594c-3.352,1.455-7.25-0.081-8.706-3.434c-0.155-0.357-0.279-0.728-0.369-1.106l-23.397-2.364
	l7.719-9.474l21.035,3.697c3.624-0.611,7.056,1.83,7.667,5.454C135.281,325.398,133.648,328.387,130.82,329.594L130.82,329.594z"/>
<path fill="#3F3D56" d="M116.429,325.835l-54.603-5.031l-0.075-0.086l-39.85-45.661c-5.445-8.342-3.44-19.482,4.571-25.402l0,0
	c8.351-6.155,20.11-4.375,26.265,3.976c0.436,0.592,0.837,1.209,1.201,1.849l24.545,43.099l38.547,15.488L116.429,325.835z"/>
<path fill="#CCCCCC" d="M961.484,543.621H1.191c-0.658-0.004-1.188-0.539-1.185-1.197c0.003-0.652,0.532-1.181,1.185-1.184h960.293
	c0.658,0.002,1.189,0.536,1.188,1.194C962.669,543.089,962.14,543.619,961.484,543.621z"/>
<path fill="#FFB6B6" d="M794.484,330.797c3.367,0.323,6.36-2.145,6.684-5.512c0.035-0.359,0.037-0.721,0.008-1.08l19.925-8.771
	l-9.505-6.135l-17.464,9.271c-3.364,0.498-5.688,3.63-5.19,6.994C789.357,328.379,791.649,330.543,794.484,330.797z"/>
<path fill="#3F3D56" d="M806.198,322.211l-3.538-12.318l35.814-17.969l21.127-40.709c3.93-7.571,13.252-10.523,20.823-6.594
	c0.84,0.436,1.637,0.948,2.383,1.529l0,0c6.718,5.25,7.917,14.948,2.681,21.677l-31.768,40.737L806.198,322.211z"/>
</svg>
