<?xml version="1.0" encoding="utf-8"?>
<!-- Generator: Adobe Illustrator 16.0.3, SVG Export Plug-In . SVG Version: 6.00 Build 0)  -->
<!DOCTYPE svg PUBLIC "-//W3C//DTD SVG 1.1//EN" "http://www.w3.org/Graphics/SVG/1.1/DTD/svg11.dtd">
<svg version="1.1" id="Capa_1" xmlns="http://www.w3.org/2000/svg" xmlns:xlink="http://www.w3.org/1999/xlink" x="0px" y="0px"
	 width="930.986px" height="797.335px" viewBox="0 0 930.986 797.335" enable-background="new 0 0 930.986 797.335"
	 xml:space="preserve">
<path fill="#F2F2F2" d="M727.269,128.56h-63.256v539.293c0,35.586-28.848,64.434-64.433,64.434l0,0H115.962v0.615
	c0,35.586,28.848,64.434,64.433,64.434l0,0h546.875c35.585,0,64.433-28.848,64.433-64.434l0,0v-539.91
	C791.702,157.407,762.854,128.56,727.269,128.56L727.269,128.56z"/>
<path fill="#F2F2F2" d="M26.744,73.237h622.252c14.771,0,26.744,11.974,26.744,26.744v615.288c0,14.77-11.974,26.744-26.744,26.744
	H26.744C11.973,742.013,0,730.039,0,715.269V99.981C0,85.211,11.973,73.237,26.744,73.237z"/>
<path fill="#FFFFFF" d="M64.432,86.488c-28.267,0-51.182,22.915-51.182,51.182l0,0v539.912c0,28.266,22.915,51.182,51.182,51.182
	h349.029c137.534,0,249.027-111.494,249.027-249.027V137.669c0-28.267-22.915-51.182-51.182-51.182l0,0H64.432z"/>
<path fill="#FFB6B6" d="M690.527,448.824c-10.659,2.953-21.695-3.293-24.648-13.953c-0.286-1.033-0.489-2.086-0.606-3.152
	l-95.565-28.859l1.484-28.396l113.253,35.107c11.039-0.393,20.307,8.236,20.7,19.275
	C705.473,438.083,699.43,446.341,690.527,448.824L690.527,448.824z"/>
<path fill="#63618C" d="M368.78,302.347c-9.677-8.075,4.492-48.099,0.672-59.699c-0.229-0.703-0.445-1.407-0.651-2.113
	c-0.433-1.497-0.336-3.098,0.274-4.532l35.917-16.895c9.359,3.824,17.982,9.245,25.485,16.022l55.487,63.374l55.124,49.786
	l24.188,10.783l80.151,35.75l-0.831,2.396l-0.007,0.007l-8.81,25.586v0.016l17.624,12.285l-57.699-8.691l-38.16-15.74
	l-36.744-15.154C466.549,362.875,377.288,345.951,368.78,302.347z"/>
<path fill="#F2F2F2" d="M624.51,596.037c-2.853,1.299-6.217,0.039-7.516-2.814c-0.693-1.523-0.679-3.273,0.039-4.785
	c-0.078-0.582-0.135-0.998-0.214-1.58c-0.094-0.096-0.188-0.191-0.281-0.287c-9.483-9.619-25.887-2.953-26.054,10.555
	c-0.148,11.988-1.456,24.461,1.562,35.865c1.336,5.039,3.536,9.811,6.503,14.098c-18.786-17.848-33.515-39.525-43.188-63.564
	c-2.421-6.035-4.503-12.201-6.235-18.469c-1.416-5.139-2.604-10.33-3.562-15.572c-5.168-28.453-3.513-57.729,4.829-85.418
	c6.334-7.672,10.164-17.102,10.975-27.018c0.303-3.568,0.087-7.164-0.64-10.67c-0.867,0.486-8.982-12.426-8.635-13.557
	c-2.05-1.424-4.716-1.471-6.864-2.801c-10.684-6.611-19.563-1.15-19.432,13.6c-8.484,9.631-5.02,18.574,4.938,24.52
	c6.335,3.785,9.859,10.926,15.839,15.299c-0.183,0.629-0.386,1.25-0.568,1.881c-3.32,11.555-5.501,23.408-6.509,35.389
	c-3.018-11.631-10.45-24.119-17.457-31.283c-7.981-8.162-18.891-13.357-28.98-19.137c-12.118-6.941-26.837,4.107-23.091,17.561
	c0.036,0.131,0.073,0.26,0.11,0.391c1.22,0.162,2.432,0.367,3.637,0.615c4.16,0.877,6.821,4.961,5.943,9.121
	c-0.445,2.111-1.756,3.938-3.612,5.037l-0.137,0.08c1.791,3.443,3.842,6.746,6.134,9.879c4.724,36.672,28.124,41.34,54.829,31.268
	c0.705,0.066,1.396,0.137,2.094,0.188c0.683,16.27,3.478,32.379,8.315,47.928c2.883,9.16,6.501,18.074,10.82,26.652l-0.171-0.297
	c-5.878-9.107-14.718-15.908-25.029-19.254c-15.258-4.828-32.868-1.801-48.29-4.418c-7.423-1.26-13.173,6.518-9.362,13.012
	c0.061,0.104,0.122,0.207,0.184,0.311c2.147,0.012,4.292,0.158,6.421,0.436c1.22,0.164,2.433,0.369,3.638,0.617
	c4.16,0.877,6.82,4.961,5.943,9.119c-0.445,2.111-1.756,3.939-3.613,5.037l-0.137,0.08c-0.099,0.059-0.183,0.109-0.281,0.166
	c6.173,6.268,13.378,11.426,21.301,15.248c16.997,26.855,41.175,20.359,62.474,2.02l0.015-0.006
	c7.425,10.684,15.939,20.566,25.407,29.488l41.827-16.762c-0.036-0.525-0.094-1.059-0.146-1.578
	c-3.773,1.795-7.754,3.121-11.85,3.949c1.577-5.051,3.143-10.133,4.72-15.186c0.04-0.098,0.075-0.199,0.104-0.303
	c0.793-2.58,1.607-5.15,2.4-7.73v-0.002c-2.311-6.008-5.385-11.693-9.146-16.916H624.51z"/>
<path fill="#2F2E41" d="M394.611,632.845l-0.48-0.6C392.751,623.367,394.611,632.845,394.611,632.845z"/>
<path fill="#2F2E41" d="M419.111,728.636H285.113c-10.411-25.881-17.638-44.391-17.638-44.391s-1.755,18.131-4.259,44.391H142.074
	c-1.134-71.359-2.721-144.631-3.243-167.9l232.525,5.18l23.128,29.33c0.079,0.49,0.158,1.031,0.257,1.641
	C395.677,602.845,408.266,666.816,419.111,728.636z"/>
<path fill="#63618C" d="M417.08,226.742l-0.022-0.042c-0.738-1.372-1.928-2.447-3.367-3.045
	c-14.712-11.415-30.82-16.619-48.899-13.06c-2.96-8.96-5.72-8.96-5.72-8.96l-39.21-12.95l-5.64-34.45l-96.61-3.27l-8.78,42.99
	c0,0-54,9.68-54,16.68s9,7,0,7s-11.41-8-19.2,0c-0.667,0.672-1.372,1.306-2.109,1.9c-0.091,0.08-0.19,0.15-0.28,0.23
	c-17.892,14.073-27.373,36.296-25.15,58.95l16.61,165.231l17.729,176.309l242.641,10.102l16.25-150.031l16.529-249.623
	C417.998,229.335,417.729,227.955,417.08,226.742z"/>
<path fill="#FFFFFF" d="M18.768,669.832c1.386,3.484,2.783,6.039,4.194,7.301l470.58,1c1.41-1.262,2.809-3.816,4.193-7.301
	c16.459-41.406-14.59-86.307-59.147-86.391L77.94,583.755C33.443,583.671,2.332,628.482,18.768,669.832z"/>
<path fill="#F26925" d="M493.925,679.134l-0.384-0.002l-470.962-1l-0.283-0.254c-1.467-1.314-2.925-3.824-4.456-7.678l0,0
	c-7.914-19.568-5.435-41.809,6.596-59.154c12.005-17.695,31.999-28.291,53.383-28.291h0.124l360.648,0.686
	c21.461,0.041,41.507,10.713,53.523,28.494c12.013,17.396,14.475,39.666,6.552,59.266c-1.532,3.854-2.989,6.363-4.456,7.678
	L493.925,679.134z M54.403,676.041l399.014-1.211c28.165-0.084,48.883-27.273,40.537-54.172c-0.788-2.691-1.966-5.252-3.496-7.602
	c-11.646-17.232-31.072-27.576-51.871-27.615l-360.648-0.686h-0.12c-4.579,0.152-9.095,1.119-13.337,2.852
	c-23.296,8.814-38.873,30.973-40.169,55.848c-0.016,0.316-0.032,0.633-0.049,0.951C23.408,661,36.167,675.144,52.76,676l0,0
	C53.307,676.029,53.855,676.041,54.403,676.041L54.403,676.041z"/>
<path fill="#F58751" d="M585.061,316.46c-5.153-21.646-4.294-42.966,4.531-63.854c0.193-2.69,2.529-4.716,5.221-4.529l48.224,3.422
	c2.69,0.194,4.717,2.529,4.528,5.221l-4.53,63.854c-0.194,2.691-2.529,4.717-5.221,4.529l-48.224-3.421
	C586.899,321.486,584.874,319.151,585.061,316.46z"/>
<path fill="#F26925" d="M590.13,297.436c-4.125-10.667-1.488-25.336,2.912-41.051c0.182-2.52,2.369-4.417,4.89-4.241l41.444,2.94
	c2.52,0.182,4.417,2.369,4.241,4.89l-4.032,56.821c-0.182,2.52-2.368,4.417-4.889,4.241l-25.674-1.822
	C597.797,318.405,589.345,308.663,590.13,297.436z"/>
<path fill="#63618C" d="M618.822,300.22c-1.266-0.218-2.531-0.435-3.798-0.652c0.583-1.377,0.92-2.845,0.995-4.338
	c0.599-7.992,0.659-16.06,0.979-24.067c-0.023-0.838-0.723-1.499-1.561-1.475c-0.373,0.01-0.729,0.158-1,0.414
	c-3.179,2.634-6.358,5.267-9.538,7.9c-1.488,1.232,0.645,3.344,2.122,2.121c2.281-1.89,4.563-3.78,6.846-5.67
	c-0.21,5.247-0.419,10.494-0.629,15.741c-0.101,2.518,0.206,5.576-0.825,7.944c-0.141,0.319-0.325,0.618-0.547,0.887
	c-1.401-0.241-2.803-0.481-4.205-0.723c-1.008-0.173-2.288,0.668-1.845,1.846c0.965,2.559,3.809,3.367,6.247,2.381
	c0.215-0.096,0.423-0.208,0.622-0.333l5.339,0.917C619.913,303.437,620.724,300.546,618.822,300.22z"/>
<path fill="#F58751" d="M865.061,531.46c-5.153-21.646-4.294-42.967,4.531-63.854c0.193-2.691,2.529-4.717,5.221-4.529l48.224,3.422
	c2.69,0.193,4.717,2.529,4.528,5.221l-4.53,63.854c-0.194,2.689-2.529,4.717-5.221,4.529l-48.224-3.422
	C866.899,536.486,864.874,534.152,865.061,531.46z"/>
<path fill="#F26925" d="M870.13,512.435c-4.125-10.666-1.488-25.336,2.912-41.051c0.182-2.52,2.369-4.416,4.89-4.24l41.444,2.939
	c2.52,0.182,4.417,2.369,4.241,4.891l-4.032,56.82c-0.182,2.52-2.368,4.418-4.889,4.242l-25.674-1.822
	C877.798,533.406,869.345,523.662,870.13,512.435z"/>
<path fill="#63618C" d="M897.184,501.601c0.551-0.256,1.072-0.572,1.555-0.941c2.626-2.166,3.729-5.674,2.815-8.953
	c-1.945-7.143-10.49-7.188-16.391-6.328c-1.903,0.277-1.094,3.17,0.798,2.895c3.977-0.58,10.218-1.049,12.354,3.295
	c0.997,2.086,0.637,4.568-0.913,6.283c-0.906,0.91-2.1,1.477-3.377,1.605c-1.236-0.537-2.58-0.787-3.928-0.732
	c-1.39,0.066-2.164,2.088-0.757,2.795c1.245,0.621,2.618,0.945,4.01,0.945c2.359,1.139,3.805,3.582,3.667,6.199
	c-0.557,3.67-3.984,6.195-7.655,5.639l0,0l-0.037-0.006c-1.885-0.379-2.691,2.512-0.797,2.893c5.291,0.996,10.39-2.484,11.386-7.775
	c0.026-0.139,0.049-0.277,0.069-0.416C900.225,506.236,899.195,503.513,897.184,501.601z"/>
<path fill="#F58751" d="M811.061,189.46c-5.153-21.646-4.294-42.966,4.531-63.854c0.193-2.69,2.529-4.716,5.221-4.529l48.224,3.422
	c2.69,0.194,4.717,2.529,4.528,5.221l-4.53,63.854c-0.194,2.691-2.529,4.717-5.221,4.529l-48.224-3.422
	C812.899,194.486,810.874,192.151,811.061,189.46z"/>
<path fill="#F26925" d="M816.13,170.436c-4.125-10.667-1.488-25.336,2.912-41.051c0.182-2.52,2.369-4.417,4.89-4.241l41.444,2.94
	c2.52,0.182,4.417,2.369,4.241,4.89l-4.032,56.821c-0.182,2.52-2.368,4.417-4.889,4.242l-25.674-1.822
	C823.797,191.405,815.345,181.663,816.13,170.436z"/>
<path fill="#63618C" d="M841.615,141.842c-4.248-1.475-8.973,1.885-9.454,6.241c-0.547,4.938,4.764,8.835,9.361,7.493
	c1.85-0.54,1.063-3.436-0.797-2.893c-3.37,0.983-6.965-2.656-5.027-5.909c0.901-1.608,2.703-2.49,4.526-2.215
	c1.532,0.425,2.773,1.55,3.344,3.035c1.653,3.727-0.312,7.51-2.916,10.218c-1.485,1.544-3.229,2.745-4.829,4.153
	c-1.574,1.189-2.572,2.989-2.746,4.954c0.086,2.227,1.399,4.223,3.412,5.182c2.558,1.315,5.467,0.897,8.188,0.459
	c1.901-0.306,1.095-3.197-0.798-2.893c-2.379,0.383-5.942,0.963-7.45-1.519c-1.291-2.125,1.369-3.991,2.818-5.121
	c3.644-2.841,7.328-6.51,7.875-11.34C847.57,147.732,845.559,143.21,841.615,141.842z"/>
<path fill="#63618C" d="M109.796,434.13l23.761,10.699c-11.17,9.061-28.181,21.25-44.841,26.891l-26.47-18.051
	c-9.859-38.02-3.82-77.199,8.03-110.33c6.565-18.409,15.271-35.983,25.939-52.36c-2.22-22.653,7.261-44.876,25.15-58.95
	c0.1-0.08,0.19-0.15,0.28-0.23c17.712,15.371,28.495,37.222,29.92,60.63l0.53,8.76l1.06,17.26l2.69,44.08l-31.9,49.6L109.796,434.13
	z"/>
<path fill="#2F2E41" d="M178.152,622.314c0.563,0.705,1.418,1.113,2.32,1.109h162.34c1.65-0.002,2.985-1.342,2.983-2.99
	c0-0.205-0.021-0.41-0.063-0.609l-2.52-11.971c-0.212-0.992-0.912-1.809-1.86-2.17c-0.338-0.133-0.697-0.199-1.06-0.199H182.982
	c-0.362,0-0.723,0.066-1.06,0.199c-0.948,0.361-1.648,1.178-1.86,2.17l-2.52,11.971
	C177.361,620.703,177.585,621.617,178.152,622.314z"/>
<path fill="#3F3D56" d="M116.003,354.354v187.259c0.004,4.969,4.03,8.996,9,9h277.5c4.969-0.004,8.996-4.031,9-9V354.354
	c-0.012-4.964-4.036-8.984-9-8.99h-277.5C120.038,345.37,116.014,349.389,116.003,354.354z"/>
<path fill="#2F2E41" d="M229.032,513.873v102.561h71.851V513.873c0.002-1.514-0.983-2.852-2.431-3.299
	c-0.332-0.109-0.68-0.164-1.029-0.16h-64.92c-1.913-0.004-3.467,1.543-3.471,3.457V513.873L229.032,513.873z M257.072,549.113
	c0.04-4.236,3.507-7.637,7.742-7.598c4.18,0.039,7.559,3.418,7.598,7.598v11.9c-0.021,4.236-3.474,7.652-7.709,7.631
	c-4.205-0.021-7.609-3.426-7.631-7.631V549.113z"/>
<circle fill="#FFB6B6" cx="270.966" cy="84.6" r="62.527"/>
<path fill="#2F2E41" d="M345.831,73.662c-6.741,2.093-13.239,3.327-17.624-2.203c-4.384-5.529-3.238-11.852-9.759-14.518
	c-5.265-2.159-11.346-1.233-16.654,0.771c-0.947,0.353-1.873,0.749-2.776,1.146c-0.506-0.44-1.013-0.859-1.563-1.255
	c-4.145-2.948-9.262-4.193-14.298-3.481c3.681,1.778,6.71,4.668,8.658,8.261c-1.807,0.903-3.747,1.578-5.485,2.578
	c-23.879,13.729-50.435,19.258-48.268-3.657c7.227,19.034,1.608,25.819-8.987,43.2l-0.419,1.014
	c1.058-4.56-6.377-4.776-12.799-3.216c-4.744,1.152-1.674,12.209,4.405,19.827c-13.592-20.466-33.95-51.712-16.346-67.389
	c2.597-2.313,4.226-5.574,4.692-13.923c0.276-4.95,8.701-6.19,13.151-3.987c1.312-15.151,10.645-28.436,24.453-34.807
	c13.614-6.058,27.46,3.261,42.253,5.067c8.208,1.002,14.432,4.308,14.76,14.782c0.218,6.975,10.729,9.473,17.602,10.706
	c4.362,0.771,9.274,0.309,12.756,3.062c4.031,3.194,4.075,8.812,4.053,14.209c-3.944-0.113-7.833,0.954-11.169,3.062
	c4.084,0.103,8.03,1.49,11.279,3.965c0.063,0.039,0.122,0.083,0.177,0.132C339.112,66.083,338.627,68,345.831,73.662z"/>
<path fill="#3F3D56" d="M390.926,378.541c24.433-7.592,50.588,0.618,75.154-6.39c5.65-1.546,10.991-4.054,15.789-7.416
	c4.092-3.103,7.935-6.522,11.491-10.227c7.391-7.309,15.415-14.984,26.518-14.899c14.621,0.111,25.847,10.972,35.592,20.562
	c1.378,1.355,3.5-0.765,2.122-2.122c-8.955-8.812-18.63-18.108-31.376-20.739c-5.719-1.268-11.687-0.772-17.116,1.422
	c-4.712,2.141-9.016,5.083-12.72,8.697c-3.925,3.6-7.545,7.519-11.523,11.062c-4.154,3.778-8.938,6.798-14.137,8.922
	c-11.262,4.484-23.615,5.025-35.593,4.895c-15.036-0.164-30.431-1.188-44.998,3.339
	C388.291,376.219,389.075,379.116,390.926,378.541L390.926,378.541z"/>
<path fill="#3F3D56" d="M560.828,339.953l7.511,13.24l3.634,6.406c0.646,1.139,1.31,2.269,1.938,3.417
	c0.386,0.705,1.229,1.977,0.424,2.645c-0.708,0.346-1.504,0.47-2.283,0.356c-1.323,0.002-2.648-0.027-3.973-0.041l-7.448-0.075
	l-15.393-0.156c-0.829,0.029-1.478,0.724-1.448,1.552c0.027,0.788,0.66,1.42,1.448,1.448c8.936,0.091,17.877,0.279,26.813,0.271
	c1.56,0.149,3.119-0.277,4.386-1.199c1.271-1.266,1.592-3.202,0.795-4.81c-0.881-1.922-1.895-3.782-3.033-5.564l-3.271-5.766
	l-7.511-13.24c-0.442-0.701-1.369-0.91-2.07-0.468C560.68,338.392,560.453,339.258,560.828,339.953L560.828,339.953z"/>
<path fill="#F26925" d="M660.097,372.395h-69.031c-1.589,0.006-2.881-1.277-2.887-2.866c-0.006-1.589,1.277-2.881,2.866-2.887
	c0.001,0,0.002,0,0.003,0c0.006,0,0.012,0,0.018,0h69.031c1.588-0.006,2.881,1.277,2.887,2.866c0.006,1.588-1.277,2.881-2.866,2.887
	c-0.001,0-0.002,0-0.004,0C660.108,372.395,660.103,372.395,660.097,372.395z"/>
<path fill="#F26925" d="M660.097,418.722h-69.031c-1.589,0.006-2.88-1.279-2.885-2.867s1.279-2.881,2.867-2.885
	c0.006,0,0.012,0,0.018,0h69.031c1.588-0.006,2.88,1.279,2.885,2.867s-1.279,2.881-2.868,2.885l0,0
	C660.108,418.722,660.103,418.722,660.097,418.722z"/>
<path fill="#F26925" d="M727.862,395.559H591.066c-1.589,0.005-2.88-1.279-2.885-2.868s1.279-2.88,2.867-2.885
	c0.006,0,0.012,0,0.018,0h136.796c1.589-0.004,2.881,1.279,2.885,2.868c0.005,1.589-1.278,2.88-2.867,2.885
	C727.874,395.559,727.868,395.559,727.862,395.559z"/>
<path fill="#3F3D56" d="M636.275,345.23c15.187-20.589,41.124-29.467,56.766-49.665c3.637-4.592,6.454-9.777,8.328-15.327
	c1.459-4.924,2.529-9.955,3.201-15.047c1.624-10.266,3.544-21.203,12.539-27.712c11.846-8.57,27.323-6.47,40.855-4.516
	c0.823,0.097,1.569-0.491,1.667-1.314c0.092-0.784-0.438-1.506-1.215-1.651c-12.434-1.795-25.735-3.555-37.563,1.876
	c-5.357,2.365-9.872,6.3-12.948,11.284c-2.527,4.516-4.252,9.436-5.096,14.541c-1.03,5.226-1.625,10.528-2.732,15.739
	c-1.108,5.505-3.174,10.772-6.104,15.562c-6.417,10.284-16.05,18.037-25.777,25.027c-12.212,8.774-25.222,17.068-34.276,29.344
	C632.776,344.92,635.124,346.79,636.275,345.23L636.275,345.23z"/>
<path fill="#3F3D56" d="M750.305,213.5l13.894,6.218l6.723,3.009c1.194,0.535,2.398,1.052,3.585,1.604
	c0.729,0.339,2.162,0.864,1.909,1.88c-0.173,0.692-1.1,1.249-1.628,1.64c-1.065,0.786-2.15,1.547-3.225,2.32l-6.046,4.352
	l-12.495,8.992c-0.649,0.514-0.76,1.458-0.246,2.108c0.488,0.618,1.373,0.753,2.023,0.309c7.254-5.22,14.569-10.365,21.765-15.664
	c1.345-0.804,2.349-2.071,2.823-3.564c0.274-1.772-0.614-3.522-2.208-4.346c-1.849-1.027-3.767-1.925-5.74-2.686l-6.05-2.708
	l-13.894-6.218c-0.772-0.303-1.644,0.077-1.946,0.849C749.261,212.33,749.592,213.163,750.305,213.5L750.305,213.5z"/>
<path fill="#63618C" d="M875.097,229.395h-69.031c-1.589,0.005-2.881-1.278-2.886-2.866c-0.006-1.589,1.277-2.881,2.866-2.887
	c0.001,0,0.001,0,0.002,0c0.006,0,0.012,0,0.018,0h69.031c1.588-0.005,2.88,1.279,2.885,2.868s-1.279,2.88-2.868,2.885
	C875.108,229.395,875.103,229.395,875.097,229.395z"/>
<path fill="#3F3D56" d="M689.275,436.042c15.187,20.59,41.124,29.467,56.766,49.664c3.637,4.592,6.454,9.777,8.328,15.328
	c1.459,4.924,2.529,9.955,3.201,15.047c1.624,10.266,3.544,21.203,12.539,27.711c11.846,8.57,27.323,6.471,40.855,4.516
	c0.823-0.098,1.569,0.49,1.667,1.314c0.093,0.783-0.438,1.506-1.215,1.652c-12.434,1.795-25.735,3.555-37.563-1.877
	c-5.357-2.365-9.872-6.301-12.948-11.285c-2.527-4.516-4.252-9.436-5.096-14.541c-1.03-5.225-1.625-10.527-2.732-15.738
	c-1.108-5.504-3.174-10.771-6.104-15.563c-6.417-10.283-16.05-18.037-25.777-25.025c-12.212-8.775-25.222-17.068-34.276-29.346
	C685.776,436.351,688.124,434.482,689.275,436.042L689.275,436.042z"/>
<path fill="#3F3D56" d="M803.305,567.771l13.894-6.217l6.723-3.01c1.194-0.535,2.398-1.053,3.585-1.605
	c0.729-0.338,2.162-0.863,1.909-1.879c-0.173-0.691-1.1-1.248-1.628-1.639c-1.065-0.787-2.15-1.549-3.225-2.322l-6.046-4.35
	l-12.495-8.992c-0.649-0.516-0.76-1.459-0.246-2.109c0.488-0.617,1.373-0.754,2.023-0.309c7.254,5.221,14.569,10.365,21.765,15.664
	c1.345,0.805,2.349,2.072,2.823,3.564c0.274,1.773-0.614,3.523-2.208,4.346c-1.849,1.027-3.767,1.926-5.74,2.686l-6.05,2.709
	l-13.894,6.219c-0.772,0.303-1.644-0.078-1.946-0.85C802.261,568.941,802.592,568.109,803.305,567.771L803.305,567.771z"/>
<path fill="#63618C" d="M928.097,560.394h-69.031c-1.588,0.008-2.882-1.275-2.889-2.863s1.274-2.883,2.863-2.889
	c0.009,0,0.017,0,0.025,0h69.031c1.588-0.008,2.882,1.275,2.889,2.863s-1.275,2.883-2.863,2.889
	C928.114,560.394,928.105,560.394,928.097,560.394z"/>
<path fill="#FFB6B6" d="M141.167,448.591c-4.983,9.875-17.029,13.84-26.904,8.855c-0.956-0.482-1.873-1.041-2.74-1.672
	L39.628,489.99l-4.818-20.15l73.218-43.148c7.133-8.434,19.753-9.488,28.187-2.354C143.27,430.306,145.318,440.332,141.167,448.591
	L141.167,448.591z"/>
<path fill="#63618C" d="M113.463,344.667l-50.59,103.371l21.38-9.691l14.88-6.75l7.46,28.34c0,0-4.94,4.801-12.73,11.111
	c-11.17,9.059-28.18,21.25-44.84,26.889c-13.04,4.42-25.85,4.83-35.47-3.41c-18.26-15.639-0.41-77.75,16.84-125.039
	c11.55-31.67,22.82-56.68,22.82-56.68c0-33.4,64.818-81.427,76.849-87.997l0,0c6.87-3.74,8.77,1.707,8.77,1.707l-37.698,55.189
	l11.27,45.7l3.19,12.91L113.463,344.667z"/>
</svg>
