<?xml version="1.0" encoding="utf-8"?>
<!-- Generator: Adobe Illustrator 16.0.3, SVG Export Plug-In . SVG Version: 6.00 Build 0)  -->
<!DOCTYPE svg PUBLIC "-//W3C//DTD SVG 1.1//EN" "http://www.w3.org/Graphics/SVG/1.1/DTD/svg11.dtd">
<svg version="1.1" id="Capa_1" xmlns="http://www.w3.org/2000/svg" xmlns:xlink="http://www.w3.org/1999/xlink" x="0px" y="0px"
	 width="829.131px" height="587.676px" viewBox="0 0 829.131 587.676" enable-background="new 0 0 829.131 587.676"
	 xml:space="preserve">
<polygon fill="#FFB6B6" points="85.757,572.858 99.518,572.858 106.065,519.776 85.754,519.776 "/>
<path fill="#DEDEDF" d="M85.272,587.213l42.319-0.002v-0.535c0-9.096-7.375-16.471-16.472-16.471h-0.001l-7.73-5.865l-14.422,5.865
	l-3.694,0.002L85.272,587.213z"/>
<polygon fill="#FFB6B6" points="107.98,508.635 118.814,517.122 156.702,479.372 140.712,466.846 "/>
<path fill="#DEDEDF" d="M98.745,519.637l33.315,26.096l0.33-0.42c5.609-7.162,4.352-17.516-2.81-23.125h0l-2.469-9.385
	l-14.971-4.277l-2.908-2.277L98.745,519.637z"/>
<path fill="#2F2E41" d="M172.771,266.774c0,0,18.265,18.941,10.147,62.912l6.815,75.289l1.759,3.484
	c2.15,4.26,1.322,9.418-2.052,12.793l0,0l-1.449,4.492l-1.353,8.795l-50.397,75.764l-19.279-20.293l31.118-71.029l-8.456-18.266
	l-19.618-63.588l-13.529,116.354l2.706,100.117H83.288L67.241,441.981L50.33,285.04l8.797-18.265H172.771z"/>
<path fill="#3F3D56" d="M54.547,299.321l-0.185-0.26c-9.856-13.799,4.968-46.958,7.204-51.765l0,0
	c-5.475-1.777-8.933-7.172-8.26-12.889l0.964-8.193l1.004-8.037l-7.197-7.197l-0.021-0.179l-4.142-36.243l-6.022-24.072
	c-4.62-18.528,1.114-38.108,15-51.216l13.92-2.21L83.73,80.76h27.282l9.354,8.938c17.462,3.063,20.462,2.063,35.462,20.063
	l-6.816,55.963l-1.701,7.698l0.005,10.442l4.323,4.804c3.157,3.509,4.472,8.303,3.546,12.932l-0.569,2.842l0,0
	c4.458,1.911,8.713,35.866,9.729,40.608l1.519,7.084c1.299,1.714,9.873,13.146,9.873,16.271c0,0.469-0.346,0.923-1.09,1.426
	c-5.843,3.957-29.137,32.023-43.431,26.303c-15.225-6.088-75.747,3.044-76.357,3.138L54.547,299.321z"/>
<path fill="#FFB6B6" d="M50.881,234.245c0,0,7.006-39.594-0.052-54.485l-28,2l4.261,56.487l24.477,62.717
	c-1.169,6.049,2.786,11.9,8.834,13.069s11.899-2.786,13.068-8.834c0.773-3.997-0.693-8.097-3.824-10.698L50.881,234.245z"/>
<path fill="#3F3D56" d="M22.83,158.76l1.733-18.871c1.317-14.345,8.3-27.572,19.403-36.752l0,0
	c6.967-5.718,16.575-6.986,24.787-3.272l0,0c11.289,5.197,16.623,18.25,12.205,29.867c-6.472,16.972-4.135,34.921-16.754,37.109
	l1.371,6.522l-12.407,40.49L17.83,209.76L22.83,158.76z"/>
<path fill="#FFB6B6" d="M209.207,215.479c0,0-20.51-34.586-35.571-41.272l-19.922,19.776l40.067,40.044l59.456,31.584
	c3.058,5.348,9.872,7.204,15.219,4.146c5.348-3.058,7.205-9.872,4.147-15.219c-2.021-3.534-5.806-5.687-9.875-5.616L209.207,215.479
	z"/>
<path fill="#3F3D56" d="M138.714,176.546l-10.993-15.437c-8.356-11.734-11.688-26.316-9.258-40.515l0,0
	c1.553-8.878,8.01-16.105,16.658-18.645l0,0c11.948-3.422,24.504,2.996,28.729,14.683c6.162,17.087,28.639,45.17,20.499,55.059
	l5.293,4.051l7.999,22.787l-29.459,19.942L138.714,176.546z"/>
<circle fill="#FFB6B6" cx="95.531" cy="42.587" r="30.299"/>
<path fill="#2F2E41" d="M73.542,63.943c-0.265-0.232-0.514-0.48-0.773-0.718c-0.009,0.024-0.01,0.05-0.021,0.074L73.542,63.943z"/>
<path fill="#2F2E41" d="M120.36,10.591c-1.505-2.423-3.59-4.434-6.067-5.85c-1.692-0.821-3.472-1.452-5.304-1.879l-4.795-1.308
	c-2.457-0.76-4.984-1.27-7.544-1.519c-7.246-0.357-14.086,3.354-17.737,9.623c-1.449,2.569-2.61,5.771-5.407,6.711
	c-2.254,0.758-4.714-0.311-7.083-0.104c-2.82,0.409-5.25,2.198-6.476,4.77c-1.181,2.548-1.762,5.333-1.699,8.141
	C58.06,42.068,63.335,54.438,72.77,63.225c0.782-2.061-0.506-4.287-1.524-6.258c-1.03-1.996-1.667-4.777,0.059-6.214
	c1.92-1.599,4.996-0.048,7.267-1.091c1.476-0.848,2.428-2.378,2.536-4.077c0.22-1.657-0.009-3.341,0.094-5.009
	c0.431-6.914,6.385-12.168,13.298-11.738c0.038,0.002,0.076,0.005,0.114,0.008c5.168,0.369,10.184,3.901,15.158,2.448
	c2.335-0.682,4.326-2.419,6.741-2.711c2.674-0.323,5.19,1.186,7.46,2.635C125.64,24.138,124.334,16.684,120.36,10.591z"/>
<path fill="#4B5144" d="M225.399,570.192l-7.71-12.391l-1.54,7.08c-0.27,1.24-0.54,2.5-0.79,3.75c-2.19-1.869-4.52-3.6-6.8-5.26
	c-7-5.08-13.997-10.166-20.99-15.26l2.19,12.699c1.35,7.82,2.76,15.801,6.1,22.951c0.37,0.809,0.77,1.609,1.2,2.389h32.54
	c0.262-0.725,0.443-1.475,0.54-2.24c0.008-0.049,0.011-0.1,0.01-0.148C230.66,578.911,227.979,574.342,225.399,570.192z"/>
<path fill="#4B5144" d="M789.482,556.811l-13.985-22.475l-2.793,12.842c-0.49,2.25-0.979,4.535-1.434,6.803
	c-3.972-3.393-8.198-6.531-12.334-9.541c-12.697-9.215-25.388-18.441-38.073-27.68l3.972,23.035
	c2.449,14.186,5.007,28.66,11.065,41.629c0.671,1.469,1.396,2.92,2.177,4.336h59.023c0.476-1.314,0.804-2.678,0.979-4.064
	c0.015-0.09,0.021-0.18,0.018-0.271C799.023,572.627,794.162,564.338,789.482,556.811z"/>
<path fill="#CACACA" d="M827.94,587.37L1.19,587.676c-0.657-0.004-1.188-0.539-1.184-1.197c0.003-0.652,0.532-1.18,1.184-1.184
	l826.75-0.309c0.658,0.004,1.188,0.541,1.185,1.197C829.122,586.836,828.594,587.366,827.94,587.37z"/>
<path d="M259.398,238.297v287.023c0.006,7.617,6.179,13.789,13.795,13.795h425.34c7.615-0.006,13.788-6.178,13.794-13.795V238.297
	c-0.018-7.609-6.186-13.77-13.795-13.78H273.193C265.584,224.527,259.416,230.688,259.398,238.297z"/>
<path fill="#FFFFFF" d="M269.376,241.869V521.78c0.007,4.07,3.304,7.367,7.373,7.373h418.244c4.068-0.006,7.365-3.303,7.372-7.373
	V241.869c0-4.074-3.298-7.379-7.372-7.388H276.749C272.675,234.49,269.376,237.794,269.376,241.869z"/>
<path d="M250.502,581.299c1.579,1.979,3.977,3.127,6.509,3.113H712.45c4.628-0.006,8.376-3.762,8.37-8.391
	c-0.001-0.574-0.061-1.146-0.179-1.709l-7.069-33.582c-0.596-2.781-2.56-5.072-5.218-6.088c-0.948-0.371-1.956-0.561-2.975-0.561
	H264.053c-1.018,0-2.026,0.189-2.974,0.561c-2.659,1.014-4.623,3.307-5.218,6.088l-7.07,33.582
	C248.282,576.78,248.91,579.346,250.502,581.299z"/>
<path fill="#59595E" d="M701.657,548.547h-13.051c-0.27,0-0.488-0.219-0.488-0.488v-7.439c0-0.27,0.219-0.488,0.488-0.488h13.051
	c0.27,0,0.488,0.219,0.488,0.488v7.439C702.146,548.329,701.927,548.547,701.657,548.547z"/>
<path fill="#59595E" d="M673.603,548.547h-13.051c-0.27,0-0.488-0.219-0.488-0.488v-7.439c0-0.27,0.219-0.488,0.488-0.488h13.051
	c0.27,0,0.488,0.219,0.488,0.488v7.439C674.091,548.329,673.872,548.547,673.603,548.547z"/>
<path fill="#59595E" d="M645.548,548.547h-13.051c-0.27,0-0.488-0.219-0.488-0.488v-7.439c0-0.27,0.219-0.488,0.488-0.488h13.051
	c0.27,0,0.488,0.219,0.488,0.488v7.439C646.036,548.329,645.817,548.547,645.548,548.547z"/>
<path fill="#59595E" d="M617.493,548.547h-13.051c-0.27,0-0.488-0.219-0.488-0.488v-7.439c0-0.27,0.219-0.488,0.488-0.488h13.051
	c0.27,0,0.488,0.219,0.488,0.488v7.439C617.981,548.329,617.763,548.547,617.493,548.547z"/>
<path fill="#59595E" d="M589.438,548.547h-13.051c-0.27,0-0.488-0.219-0.488-0.488v-7.439c0-0.27,0.219-0.488,0.488-0.488h13.051
	c0.27,0,0.488,0.219,0.488,0.488v7.439C589.927,548.329,589.708,548.547,589.438,548.547z"/>
<path fill="#59595E" d="M561.384,548.547h-13.051c-0.27,0-0.488-0.219-0.488-0.488v-7.439c0-0.27,0.219-0.488,0.488-0.488h13.051
	c0.27,0,0.488,0.219,0.488,0.488v7.439C561.872,548.329,561.653,548.547,561.384,548.547z"/>
<path fill="#59595E" d="M533.329,548.547h-13.051c-0.27,0-0.488-0.219-0.488-0.488v-7.439c0-0.27,0.219-0.488,0.488-0.488h13.051
	c0.271,0,0.488,0.219,0.488,0.488v7.439C533.817,548.329,533.6,548.547,533.329,548.547z"/>
<path fill="#59595E" d="M505.275,548.547h-13.052c-0.27,0-0.488-0.219-0.488-0.488v-7.439c0-0.27,0.219-0.488,0.488-0.488h13.052
	c0.27,0,0.487,0.219,0.487,0.488v7.439C505.763,548.329,505.545,548.547,505.275,548.547z"/>
<path fill="#59595E" d="M477.221,548.547h-13.052c-0.27,0-0.487-0.219-0.487-0.488v-7.439c0-0.27,0.218-0.488,0.487-0.488h13.052
	c0.27,0,0.488,0.219,0.488,0.488v7.439C477.709,548.329,477.49,548.547,477.221,548.547z"/>
<path fill="#59595E" d="M449.166,548.547h-13.051c-0.271,0-0.488-0.219-0.488-0.488v-7.439c0-0.27,0.218-0.488,0.488-0.488h13.051
	c0.27,0,0.488,0.219,0.488,0.488v7.439C449.654,548.329,449.436,548.547,449.166,548.547z"/>
<path fill="#59595E" d="M421.111,548.547h-13.051c-0.27,0-0.488-0.219-0.488-0.488v-7.439c0-0.27,0.219-0.488,0.488-0.488h13.051
	c0.27,0,0.488,0.219,0.488,0.488v7.439C421.6,548.329,421.381,548.547,421.111,548.547z"/>
<path fill="#59595E" d="M393.057,548.547h-13.051c-0.27,0-0.488-0.219-0.488-0.488v-7.439c0-0.27,0.219-0.488,0.488-0.488h13.051
	c0.27,0,0.488,0.219,0.488,0.488v7.439C393.545,548.329,393.326,548.547,393.057,548.547z"/>
<path fill="#59595E" d="M365.002,548.547h-13.051c-0.27,0-0.488-0.219-0.488-0.488v-7.439c0-0.27,0.219-0.488,0.488-0.488h13.051
	c0.27,0,0.488,0.219,0.488,0.488v7.439C365.49,548.329,365.271,548.547,365.002,548.547z"/>
<path fill="#59595E" d="M336.947,548.547h-13.051c-0.27,0-0.488-0.219-0.488-0.488v-7.439c0-0.27,0.219-0.488,0.488-0.488h13.051
	c0.27,0,0.488,0.219,0.488,0.488v7.439C337.436,548.329,337.217,548.547,336.947,548.547z"/>
<path fill="#59595E" d="M308.893,548.547h-13.051c-0.27,0-0.488-0.219-0.488-0.488v-7.439c0-0.27,0.218-0.488,0.488-0.488h13.051
	c0.27,0,0.488,0.219,0.488,0.488v7.439C309.381,548.329,309.162,548.547,308.893,548.547z"/>
<path fill="#59595E" d="M280.838,548.547h-13.051c-0.27,0-0.488-0.219-0.488-0.488v-7.439c0-0.27,0.218-0.488,0.488-0.488h13.051
	c0.27,0,0.488,0.219,0.488,0.488v7.439C281.326,548.329,281.107,548.547,280.838,548.547z"/>
<path fill="#59595E" d="M701.989,562.575h-13.052c-0.27,0-0.487-0.219-0.487-0.488v-7.439c0-0.27,0.218-0.488,0.487-0.488h13.052
	c0.27,0,0.488,0.219,0.488,0.488v7.439C702.478,562.356,702.259,562.575,701.989,562.575z"/>
<path fill="#59595E" d="M673.935,562.575h-13.051c-0.271,0-0.488-0.219-0.488-0.488v-7.439c0-0.27,0.218-0.488,0.488-0.488h13.051
	c0.27,0,0.488,0.219,0.488,0.488v7.439C674.423,562.356,674.204,562.575,673.935,562.575z"/>
<path fill="#59595E" d="M645.88,562.575h-13.051c-0.27,0-0.488-0.219-0.488-0.488v-7.439c0-0.27,0.219-0.488,0.488-0.488h13.051
	c0.27,0,0.488,0.219,0.488,0.488v7.439C646.368,562.356,646.149,562.575,645.88,562.575z"/>
<path fill="#59595E" d="M617.825,562.575h-13.051c-0.27,0-0.488-0.219-0.488-0.488v-7.439c0-0.27,0.219-0.488,0.488-0.488h13.051
	c0.27,0,0.488,0.219,0.488,0.488v7.439C618.313,562.356,618.095,562.575,617.825,562.575z"/>
<path fill="#59595E" d="M589.771,562.575H576.72c-0.27,0-0.488-0.219-0.488-0.488v-7.439c0-0.27,0.219-0.488,0.488-0.488h13.051
	c0.27,0,0.488,0.219,0.488,0.488v7.439C590.259,562.356,590.04,562.575,589.771,562.575z"/>
<path fill="#59595E" d="M561.716,562.575h-13.051c-0.27,0-0.488-0.219-0.488-0.488v-7.439c0-0.27,0.219-0.488,0.488-0.488h13.051
	c0.27,0,0.488,0.219,0.488,0.488v7.439C562.204,562.356,561.985,562.575,561.716,562.575z"/>
<path fill="#59595E" d="M533.661,562.575H520.61c-0.27,0-0.488-0.219-0.488-0.488v-7.439c0-0.27,0.219-0.488,0.488-0.488h13.051
	c0.27,0,0.488,0.219,0.488,0.488v7.439C534.149,562.356,533.931,562.575,533.661,562.575z"/>
<path fill="#59595E" d="M505.606,562.575h-13.051c-0.27,0-0.488-0.219-0.488-0.488v-7.439c0-0.27,0.219-0.488,0.488-0.488h13.051
	c0.27,0,0.488,0.219,0.488,0.488v7.439C506.095,562.356,505.876,562.575,505.606,562.575z"/>
<path fill="#59595E" d="M477.552,562.575h-13.051c-0.27,0-0.488-0.219-0.488-0.488v-7.439c0-0.27,0.219-0.488,0.488-0.488h13.051
	c0.27,0,0.488,0.219,0.488,0.488v7.439C478.04,562.356,477.821,562.575,477.552,562.575z"/>
<path fill="#59595E" d="M449.497,562.575h-13.051c-0.27,0-0.488-0.219-0.488-0.488v-7.439c0-0.27,0.219-0.488,0.488-0.488h13.051
	c0.27,0,0.488,0.219,0.488,0.488v7.439C449.985,562.356,449.767,562.575,449.497,562.575z"/>
<path fill="#59595E" d="M421.442,562.575h-13.051c-0.27,0-0.488-0.219-0.488-0.488v-7.439c0-0.27,0.219-0.488,0.488-0.488h13.051
	c0.27,0,0.488,0.219,0.488,0.488v7.439C421.931,562.356,421.712,562.575,421.442,562.575z"/>
<path fill="#59595E" d="M393.388,562.575h-13.051c-0.27,0-0.488-0.219-0.488-0.488v-7.439c0-0.27,0.219-0.488,0.488-0.488h13.051
	c0.27,0,0.488,0.219,0.488,0.488v7.439C393.876,562.356,393.657,562.575,393.388,562.575z"/>
<path fill="#59595E" d="M365.333,562.575h-13.051c-0.27,0-0.488-0.219-0.488-0.488v-7.439c0-0.27,0.219-0.488,0.488-0.488h13.051
	c0.27,0,0.488,0.219,0.488,0.488v7.439C365.821,562.356,365.603,562.575,365.333,562.575z"/>
<path fill="#59595E" d="M337.278,562.575h-13.051c-0.27,0-0.488-0.219-0.488-0.488v-7.439c0-0.27,0.219-0.488,0.488-0.488h13.051
	c0.27,0,0.488,0.219,0.488,0.488v7.439C337.767,562.356,337.548,562.575,337.278,562.575z"/>
<path fill="#59595E" d="M309.224,562.575h-13.051c-0.27,0-0.488-0.219-0.488-0.488v-7.439c0-0.27,0.218-0.488,0.488-0.488h13.051
	c0.27,0,0.488,0.219,0.488,0.488v7.439C309.712,562.356,309.493,562.575,309.224,562.575z"/>
<path fill="#59595E" d="M281.169,562.575h-13.051c-0.27,0-0.488-0.219-0.488-0.488v-7.439c0-0.27,0.218-0.488,0.488-0.488h13.051
	c0.27,0,0.488,0.219,0.488,0.488v7.439C281.657,562.356,281.439,562.575,281.169,562.575z"/>
<path fill="#3F3D56" d="M536.326,579.407H425.085c-0.271,0-0.488-0.219-0.488-0.488v-7.439c0-0.27,0.218-0.488,0.488-0.488h111.241
	c0.271,0,0.488,0.219,0.488,0.488v7.439C536.814,579.188,536.597,579.407,536.326,579.407z"/>
<path fill="#59595E" d="M581.15,404.04c-0.103,52.27-42.559,94.559-94.828,94.457c-52.27-0.104-94.559-42.559-94.456-94.828
	s42.559-94.559,94.828-94.457c39.418,0.078,74.661,24.579,88.464,61.502c0.207,0.556,0.408,1.111,0.604,1.672v0.006
	c0.873,2.467,1.643,4.979,2.308,7.537C580.122,387.801,581.157,395.905,581.15,404.04z"/>
<path fill="#EB6028" d="M475.446,339.756c-8.677-4.693-19.034-5.117-28.065-1.148c-3.924,1.707-8.056,4.771-9.365,10.303
	c5.295-3.125,12.148,1.813,13.511,9.732l-0.318,0.087c-0.72,5.485,0.887,11.458,3.997,14.858c0.468-3.107,2.311-5.84,5.016-7.439
	c2.285-1.502,4.813-2.593,6.557-5.174c2.067-3.062,2.593-7.535,3.414-11.615C471.013,345.279,472.571,340.893,475.446,339.756z"/>
<path fill="#EB6028" d="M445.811,386.434c-1.467,2.202-3.425,3.584-5.183,5.305c-2.028,1.846-3.359,4.334-3.769,7.045
	c-0.223,1.916,0.122,3.863,0.074,5.801s-0.693,4.119-2.012,4.602c-2.08,0.75-3.668-3.113-5.807-3.383
	c-1.699-0.213-3.229,2.461-2.736,4.779s2.805,3.346,4.134,1.832c1.201,2.016,0.354,5.674-1.45,6.293
	c-0.19,1.271-0.381,2.535-0.566,3.807c-4.563-3.191-9.174-6.438-13.054-11.111c-4.315-5.154-6.991-11.48-7.686-18.166
	c-0.503-5.373,0.243-11.52-2.224-15.652c-1.975-3.309-5.362-4.039-8.411-3.833c-0.556,0.037-1.116,0.101-1.673,0.169
	c1.799-5.4,4.082-10.627,6.823-15.615c0.62-0.266,1.197-0.625,1.71-1.063c2.837-2.409,4.097-7.284,6.399-10.655
	c0.148-0.217,0.302-0.43,0.461-0.636c2.355-3.075,5.51-4.658,8.56-6.13c6.748-3.276,13.693-6.596,20.818-6.141l-2.027,0.197
	c-2.366,6.627-4.734,13.254-7.104,19.881c-0.36,1.017-0.724,2.035-1.091,3.055c-1.345,3.769-2.731,7.781-2.524,12
	c0.121,2.498,0.989,5.166,2.641,6.023c1.541,0.795,3.224-0.18,4.711-1.143c0.63-0.402,1.255-0.805,1.885-1.213
	c2.261-1.455,4.764-2.948,7.151-1.975c2.187,0.89,3.801,3.859,4.107,7.062C448.252,380.681,447.492,383.799,445.811,386.434z"/>
<path fill="#EB6028" d="M459.253,431.68c-6.601-4.064-13.202-8.129-19.804-12.193l0.112-0.289c-4.104,1.564-5.809,8.859-5.13,14.826
	c0.678,5.967,2.978,11.299,4.14,17.113c1.566,7.955,0.976,16.186-1.713,23.836c8.681-9.74,16.362-20.326,22.932-31.598
	c0.917-1.422,1.616-2.973,2.074-4.6c0.484-1.736,0.312-3.588-0.485-5.205C460.839,432.774,460.108,432.124,459.253,431.68z"/>
<path fill="#EB6028" d="M433.2,357.735c-0.775,1.664-0.895,3.561-0.335,5.309c0.651,1.408,1.833,2.503,3.288,3.045l3.647,1.808
	c1.213,0.602,2.521,1.209,3.758,0.714c1.492-0.597,2.527-2.936,2.26-5.107c-0.285-2.311-1.742-3.9-3.089-5.254
	c-1.886-1.895-3.771-3.788-5.655-5.683l-1.063,1.302C434.862,354.989,433.912,356.295,433.2,357.735z"/>
<path fill="#EB6028" d="M561.597,382.438c1.642,0.387,3.282,0.772,4.923,1.159c-0.286,5.542-3.033,10.671-6.717,12.528
	c-1.535,0.773-3.245,1.061-4.516,2.504c-1.148,1.314-1.73,3.357-2.266,5.311c-0.937,3.408-1.874,6.816-2.811,10.227
	c-1.006,3.674-2.297,7.754-4.912,9.078c-2.244,1.137-4.812-0.254-6.537-2.59c-1.726-2.334-2.779-5.473-3.801-8.531
	c0.063,3.334-1.487,6.605-3.685,7.764c-2.202,1.16-4.88,0.111-6.352-2.477c-1.059-1.857-1.498-4.309-2.536-6.193
	c-1.037-1.885-3.213-2.963-4.346-1.195c-0.746,1.174-0.65,2.975-1.021,4.467c-0.382,2.031-2.01,3.598-4.055,3.902
	c-1.854-0.043-3.608-0.846-4.854-2.219c-3.242-3.316-5.352-7.572-6.029-12.158c-0.459-2.199-0.401-4.477,0.169-6.648
	c0.651-2.06,2.224-3.648,3.785-3.256c1.026-2.17-1.001-5.051-2.827-4.796c-1.831,0.254-3.266,2.218-4.769,3.727
	c-1.498,1.509-3.595,2.604-5.104,1.106c0.07,1.141-0.798,2.123-1.938,2.193c-0.054,0.002-0.108,0.004-0.162,0.004
	c-1.004-0.289-1.936-0.783-2.737-1.451c-3.456-2.154-7.845-0.725-10.301,3.352c1.535-6.533,3.785-14.028,8.501-15.563
	c1.927-0.63,4.028-0.11,5.85-1.202c3.224-1.932,3.875-9.23,1.09-12.242c0.355,2.848,0.286,6.172-1.217,8.119
	c-1.504,1.948-4.658,0.678-4.468-2.201c-0.112,1.059-1.062,1.827-2.121,1.715c-0.613-0.064-1.159-0.419-1.468-0.953
	c-1-1.524-0.916-4.018-0.206-5.838c0.73-1.65,1.779-3.139,3.086-4.384c2.514-2.694,5.065-5.421,7.977-7.114
	c2.917-1.693,6.283-2.266,9.205-0.582c1.541,0.889,2.896,2.371,4.468,3.154c1.554,0.965,3.595,0.486,4.559-1.066
	c0.018-0.029,0.035-0.059,0.052-0.087c1.17-2.054,0.619-5.103,1.054-7.671c0.778-4.535,5.314-6.658,7.829-3.662
	c-1.88-0.482-3.822,1.741-4.055,4.436c-0.238,2.694,1.122,5.415,2.942,6.23c3.06,1.355,6.056-2.055,8.369-5.209
	c2.414-3.303,4.831-6.604,7.252-9.904c0.387-0.561,0.82-1.089,1.297-1.576c1.573-1.534,4.066-1.585,5.701-0.117
	c2.445,1.996,3.594,6.088,5.6,8.904c2.912,4.091,7.268,5.086,11.322,5.881c3.022,0.587,6.047,1.178,9.073,1.772
	c2.018,3.753,3.776,7.638,5.267,11.63C569.609,373.244,564.902,377.313,561.597,382.438z"/>
<path fill="#F98F26" d="M578.069,379.928c-0.62,1.828-0.959,3.74-1.005,5.67c-2.594-3.166-3.007-9.1-1.303-13.207
	C576.635,374.858,577.404,377.37,578.069,379.928z"/>
<path fill="#EB6028" d="M571.368,446.127c-2.268,4.605-4.905,9.018-7.887,13.195c-1.905-0.814-3.954,0.641-5.738,2.008
	c-1.863,1.428-4.103,2.82-6.013,1.518c-1.953-1.334-2.584-5.064-1.964-8.023c0.712-2.73,1.956-5.291,3.663-7.539
	c1.588-2.371,3.287-4.832,5.494-5.754c2.213-0.92,5.055,0.383,5.701,3.525l1.566-0.053c-0.879-1.207-0.418-3.705,0.763-4.145
	c1.36-0.514,2.54,1.355,3.345,3.008C570.659,444.614,571.024,445.366,571.368,446.127z"/>
<path fill="#EB6028" d="M511.36,423.768c-3.368,0.213-6.036-3.934-7.809-8.012c-1.772-4.08-3.39-8.744-6.429-10.82
	c-1.736-1.186-3.716-1.348-5.6-1.924c-2.167-0.547-3.938-2.105-4.755-4.186l-2.136-0.863c-2.988,1.494-5.726,3.445-8.111,5.783
	c-2.727,2.896-4.425,6.609-4.833,10.566c-0.408,4.275,1.099,9.045,3.914,10.65c2.226,1.27,4.815,0.469,7.069,1.631
	c2.815,1.453,4.487,5.67,5.12,9.834s0.473,8.49,0.926,12.703c0.452,4.211,1.7,8.592,4.282,10.75
	c3.231,2.701,7.974,0.457,9.423-4.459c0.711-2.412,0.687-5.133,1.219-7.635c0.937-4.408,3.464-7.68,5.469-11.295
	C511.115,432.875,512.693,427.965,511.36,423.768z"/>
<path fill="#EB6028" d="M478.081,380.453c0.314,0.289,0.607,0.601,0.877,0.931c0.569,0.981,0.549,2.197-0.054,3.158
	c0.82-0.046,1.583-0.434,2.104-1.068c0.614-0.701,1.155-1.463,1.613-2.273c0.437-0.563,0.609-1.284,0.476-1.982
	c-0.158-0.454-0.535-0.648-0.799-0.989c-0.365-0.668-0.615-1.393-0.738-2.144c-0.298-1.437-1.383-2.58-2.802-2.953l0.169,0.032
	c-0.589,0.349-0.891,1.034-0.75,1.705c0.103,0.661,0.527,1.209,0.484,1.883c-0.061,0.969-1.028,1.423-1.089,2.392
	C477.564,379.629,477.746,380.1,478.081,380.453z"/>
<path fill="#F98F26" d="M472.312,363.991l0.015-0.004c0.104-0.094,0.199-0.196,0.287-0.306L472.312,363.991z"/>
<path fill="#EB6028" d="M473.321,368.538c0.824-0.725,1.177-1.847,0.914-2.912c-0.245-1.102-1.11-1.842-1.909-1.639
	c-0.471,0.479-1.155,0.68-1.81,0.533c-0.493-0.127-1.036-0.455-1.464-0.082c-0.245,0.277-0.417,0.611-0.499,0.973
	c-0.158,0.487-0.317,0.974-0.476,1.461c-0.075,0.174-0.095,0.367-0.056,0.553c0.062,0.151,0.197,0.26,0.359,0.285
	c0.95,0.281,1.901,0.561,2.853,0.842C471.897,368.856,472.662,368.852,473.321,368.538z"/>
<path fill="#EB6028" d="M545.121,431.315c-0.439-0.719-0.88-1.439-1.319-2.158c-0.432-0.834-1.022-1.574-1.738-2.182
	c-0.651-0.547-1.623-0.461-2.169,0.191c-0.008,0.008-0.016,0.018-0.023,0.027l0.054,0.41c1.178,1.264,1.979,2.828,2.316,4.521
	c0.101,0.734,0.065,1.496,0.153,2.234c0.02,0.693,0.313,1.348,0.814,1.824c0.692,0.463,1.506-0.219,1.998-1.051
	c0.44-0.684,0.638-1.496,0.561-2.305C545.658,432.286,545.438,431.77,545.121,431.315z"/>
<path fill="#EB6028" d="M552.018,432.252c0.084-0.674,0.029-1.357-0.161-2.01c-0.031-0.883,0.202-1.754,0.672-2.5
	c0.466-0.707,0.818-1.48,1.046-2.295c0.096-0.371,0.078-0.762-0.051-1.123c-0.146-0.326-0.498-0.475-0.7-0.217l0.433,0.279
	c-0.584-0.104-1.184-0.076-1.756,0.084c-0.661,0.254-1.158,0.814-1.33,1.502c-0.072,0.527-0.188,1.047-0.35,1.555
	c-0.258,0.531-0.758,0.707-1.071,1.174c-0.435,0.838-0.418,1.84,0.044,2.662c0.395,0.664,1.021,1.156,1.759,1.383
	C551.08,432.938,551.775,432.948,552.018,432.252z"/>
<path fill="#EB6028" d="M564.299,435.958c0.191,0.498,0.447,0.967,0.762,1.396c0.588,0.594,1.387,0.229,2.1,0.086
	c1.319-0.209,2.646,0.322,3.455,1.385c-0.562-2.799-2.447-5.152-5.058-6.311c-1.671-0.578-3.433-0.854-5.201-0.813l-0.302,0.078
	C560.824,434.02,563.241,433.969,564.299,435.958z"/>
<path fill="#F98F26" d="M512.281,440.542l0.005,0.01l0.088-0.17L512.281,440.542z"/>
<path fill="#EB6028" d="M510.418,444.147c-0.406,0.738-0.756,1.506-1.045,2.297c-0.384,1.281-0.638,2.598-0.758,3.928
	c-0.095,0.758-0.124,1.725,0.351,2.094c0.282,0.188,0.659,0.137,0.88-0.119c0.264-0.279,0.479-0.6,0.639-0.949
	c0.933-1.605,1.656-3.324,2.154-5.113c0.52-1.896,0.396-3.914-0.353-5.732C511.663,441.749,511.041,442.948,510.418,444.147z"/>
<path fill="#EB6028" d="M492.443,348.065c0.605,0.591,1.504,0.766,2.286,0.445c0.794-0.346,1.521-0.826,2.151-1.42
	c0.521-0.387,0.965-0.869,1.304-1.423c0.378-0.668,0.474-1.458,0.267-2.198c-0.296-0.712-0.939-1.221-1.701-1.346
	c-1.056-0.313-2.111-0.625-3.167-0.938l0.764-0.688c-0.785-0.422-1.655,0.361-2.146,1.33c-0.315,0.633-0.535,1.309-0.651,2.005
	C491.211,345.305,491.538,346.854,492.443,348.065z"/>
<path fill="#EB6028" d="M511.081,341.807c0.618,0.682,1.658,0.766,2.377,0.193c0.604-0.453,0.986-1.141,1.052-1.893
	c0.074-0.83-0.336-1.754-0.923-1.825l0.135-0.777c-1.13-0.204-2.52-0.245-3.125,1.127
	C510.181,339.702,510.365,340.911,511.081,341.807z"/>
<path fill="#CACACA" d="M679.532,285.154H292.208c-0.561-0.012-1.005-0.477-0.993-1.038c0.012-0.543,0.45-0.981,0.993-0.993h387.324
	c0.561,0.012,1.005,0.477,0.993,1.038C680.514,284.705,680.076,285.143,679.532,285.154z"/>
<ellipse fill="#59595E" cx="314.563" cy="259.771" rx="10.926" ry="11.169"/>
<ellipse fill="#EB6028" cx="352.306" cy="259.771" rx="10.926" ry="11.169"/>
<ellipse fill="#59595E" cx="390.048" cy="259.771" rx="10.926" ry="11.169"/>
<path fill="#EB6028" d="M656.915,251.37h-26.81c-1.121,0.022-2.013,0.949-1.99,2.07c0.021,1.09,0.9,1.968,1.99,1.99h26.81
	c1.121-0.022,2.012-0.949,1.989-2.07C658.883,252.27,658.005,251.392,656.915,251.37z"/>
<path fill="#3F3D56" d="M656.915,258.99h-26.81c-1.121,0.022-2.013,0.949-1.99,2.07c0.021,1.09,0.9,1.968,1.99,1.99h26.81
	c1.121-0.022,2.012-0.949,1.989-2.071C658.883,259.89,658.005,259.012,656.915,258.99z"/>
<path fill="#EB6028" d="M656.915,266.6h-26.81c-1.121,0.022-2.013,0.949-1.99,2.07c0.021,1.09,0.9,1.968,1.99,1.99h26.81
	c1.121-0.022,2.012-0.949,1.989-2.07C658.883,267.5,658.005,266.622,656.915,266.6z"/>
</svg>
